<?xml version="1.0" encoding="UTF-8"?>
<svg xmlns="http://www.w3.org/2000/svg" width="188.93695068359375" height="211.03810119628906" viewBox="-40.394344329833984 19.514312744140625 188.93695068359375 211.03810119628906">
   <title>Neo4j Graph Visualization</title>
   <desc>Created using Neo4j (http://www.neo4j.com/)</desc>
   <g class="layer relationships">
      <g class="relationship" transform="translate(82.71999430656433 167.55239895673952) rotate(231.66926607960443)">
         <path class="outline" fill="#A5ABB6" stroke="none" d="M 24.018736134675446,6.953439040707552 L 24.277555179777966,5.987513214418485 A 194.2745955403395 194.2745955403395 0 0 0 30.824999071903314,7.620566691586674 L 30.599882034384002,8.59489842124475 A 195.2745955403395 195.2745955403395 0 0 1 24.018736134675446,6.953439040707552 Z M 114.15893104126522,9.549960140505306 L 113.95614270391656,8.570737545670312 A 194.2745955403395 194.2745955403395 0 0 0 120.53920211883907,7.087762859635235 L 119.82918110699632,4.1729952595096655 L 127.4586633544392,5.916841765356375 L 121.4858968012961,10.97411965980266 L 120.77587578945334,8.05935205967709 A 195.2745955403395 195.2745955403395 0 0 1 114.15893104126522,9.549960140505306" />
         <text text-anchor="middle" pointer-events="none" font-size="8px" fill="#000000" x="72.33343471050667" y="16.09453810832335" transform="rotate(180 72.33343471050667 13.094538108323349)" font-family="sans-serif">CONDUIT_OF</text>
      </g>
      <g class="relationship" transform="translate(-11.394344534957511 48.51431215090082) rotate(411.6692660796044)">
         <path class="outline" fill="#A5ABB6" stroke="none" d="M 24.018736134675446,6.953439040707552 L 24.277555179777966,5.987513214418485 A 194.2745955403395 194.2745955403395 0 0 0 30.824999071903314,7.620566691586674 L 30.599882034384002,8.59489842124475 A 195.2745955403395 195.2745955403395 0 0 1 24.018736134675446,6.953439040707552 Z M 114.15893104126522,9.549960140505306 L 113.95614270391656,8.570737545670312 A 194.2745955403395 194.2745955403395 0 0 0 120.53920211883907,7.087762859635235 L 119.82918110699632,4.1729952595096655 L 127.4586633544392,5.916841765356375 L 121.4858968012961,10.97411965980266 L 120.77587578945334,8.05935205967709 A 195.2745955403395 195.2745955403395 0 0 1 114.15893104126522,9.549960140505306" />
         <text text-anchor="middle" pointer-events="none" font-size="8px" fill="#000000" x="72.33343471050667" y="16.09453810832335" font-family="sans-serif">CONDUIT_OF</text>
      </g>
   </g>
   <g class="layer nodes">
      <g class="node" transform="translate(-11.394344534957511,48.51431215090082)">
         <circle class="outline" cx="0" cy="0" r="25" fill="#FFD86E" stroke="#EDBA39" stroke-width="2px" />
         <text text-anchor="middle" pointer-events="none" y="0" font-size="10px" fill="#604A0E" font-family="sans-serif">Core</text>
         <text text-anchor="middle" pointer-events="none" y="10" font-size="10px" fill="#604A0E" font-family="sans-serif">Switch1</text>
      </g>
      <g class="node selected" transform="translate(82.71999430656433,167.55239895673952)">
         <circle class="outline" cx="0" cy="0" r="25" fill="#FFD86E" stroke="#EDBA39" stroke-width="2px" />
         <text text-anchor="middle" pointer-events="none" y="0" font-size="10px" fill="#604A0E" font-family="sans-serif">Edge</text>
         <text text-anchor="middle" pointer-events="none" y="10" font-size="10px" fill="#604A0E" font-family="sans-serif">Switch3</text>
      </g>
   </g>
</svg>
