<?xml version="1.0" encoding="UTF-8"?>
<svg xmlns="http://www.w3.org/2000/svg" width="161.7397003173828" height="301.3331298828125" viewBox="-46.56618881225586 -50.6683349609375 161.7397003173828 301.3331298828125">
   <title>Neo4j Graph Visualization</title>
   <desc>Created using Neo4j (http://www.neo4j.com/)</desc>
   <g class="layer relationships">
      <g class="relationship" transform="translate(86.1735051687496 89.40755052282736) rotate(226.95595394175206)">
         <path class="outline" fill="#A5ABB6" stroke="none" d="M 24.018736134675446,6.953439040707552 L 24.277555179777966,5.987513214418485 A 194.74176474822787 194.74176474822787 0 0 0 30.94189729303102,7.647836590289529 L 30.71729968020251,8.622288185963583 A 195.74176474822787 195.74176474822787 0 0 1 24.018736134675446,6.953439040707552 Z M 114.27895792534305,9.575949552925408 L 114.07665809830928,8.59662591899118 A 194.74176474822787 194.74176474822787 0 0 0 120.77715688997536,7.088831019867453 L 120.06703611784293,4.174087722596484 L 127.69657804562969,5.917673101103606 L 121.72398458615193,10.975155416228745 L 121.0138638140195,8.060412118957776 A 195.74176474822787 195.74176474822787 0 0 1 114.27895792534305,9.575949552925408" />
         <text text-anchor="middle" pointer-events="none" font-size="8px" fill="#000000" x="72.45234865537164" y="16.110464158321946" transform="rotate(180 72.45234865537164 13.110464158321946)" font-family="sans-serif">CONDUIT_OF</text>
      </g>
      <g class="relationship" transform="translate(-17.56618964120304 -21.66833341582185) rotate(406.95595394175206)">
         <path class="outline" fill="#A5ABB6" stroke="none" d="M 24.018736134675446,6.953439040707552 L 24.277555179777966,5.987513214418485 A 194.74176474822787 194.74176474822787 0 0 0 30.94189729303102,7.647836590289529 L 30.71729968020251,8.622288185963583 A 195.74176474822787 195.74176474822787 0 0 1 24.018736134675446,6.953439040707552 Z M 114.27895792534305,9.575949552925408 L 114.07665809830928,8.59662591899118 A 194.74176474822787 194.74176474822787 0 0 0 120.77715688997536,7.088831019867453 L 120.06703611784293,4.174087722596484 L 127.69657804562969,5.917673101103606 L 121.72398458615193,10.975155416228745 L 121.0138638140195,8.060412118957776 A 195.74176474822787 195.74176474822787 0 0 1 114.27895792534305,9.575949552925408" />
         <text text-anchor="middle" pointer-events="none" font-size="8px" fill="#000000" x="72.45234865537164" y="16.110464158321946" font-family="sans-serif">CONDUIT_OF</text>
      </g>
      <g class="relationship" transform="translate(-1.2300935902709966 221.66481644608362) rotate(303.45913949748143)">
         <path class="outline" fill="#A5ABB6" stroke="none" d="M 24.018736134675446,6.953439040707552 L 24.277555179777966,5.987513214418485 A 207.5905473945933 207.5905473945933 0 0 0 34.16419781328906,8.378640145804525 L 33.95300445614582,9.356084449025218 A 208.5905473945933 208.5905473945933 0 0 1 24.018736134675446,6.953439040707552 Z M 117.57928493462421,10.272705425325825 L 117.38956712142432,9.290866766810751 A 207.5905473945933 207.5905473945933 0 0 0 127.32624604837589,7.117021678624125 L 126.61349244414934,4.202921079869501 L 134.2446063795078,5.939613368554607 L 128.27658418734464,11.00248914363029 L 127.56383058311808,8.088388544875666 A 208.5905473945933 208.5905473945933 0 0 1 117.57928493462421,10.272705425325825" />
         <text text-anchor="middle" pointer-events="none" font-size="8px" fill="#000000" x="75.72521557204719" y="16.54849053010068" font-family="sans-serif">CONDUIT_OF</text>
      </g>
      <g class="relationship" transform="translate(86.1735051687496 89.40755052282736) rotate(483.45913949748143)">
         <path class="outline" fill="#A5ABB6" stroke="none" d="M 24.018736134675446,6.953439040707552 L 24.277555179777966,5.987513214418485 A 207.5905473945933 207.5905473945933 0 0 0 34.16419781328906,8.378640145804525 L 33.95300445614582,9.356084449025218 A 208.5905473945933 208.5905473945933 0 0 1 24.018736134675446,6.953439040707552 Z M 117.57928493462421,10.272705425325825 L 117.38956712142432,9.290866766810751 A 207.5905473945933 207.5905473945933 0 0 0 127.32624604837589,7.117021678624125 L 126.61349244414934,4.202921079869501 L 134.2446063795078,5.939613368554607 L 128.27658418734464,11.00248914363029 L 127.56383058311808,8.088388544875666 A 208.5905473945933 208.5905473945933 0 0 1 117.57928493462421,10.272705425325825" />
         <text text-anchor="middle" pointer-events="none" font-size="8px" fill="#000000" x="75.72521557204719" y="16.54849053010068" transform="rotate(180 75.72521557204719 13.548490530100679)" font-family="sans-serif">CONDUIT_OF</text>
      </g>
   </g>
   <g class="layer nodes">
      <g class="node" transform="translate(-17.56618964120304,-21.66833341582185)">
         <circle class="outline" cx="0" cy="0" r="25" fill="#FFD86E" stroke="#EDBA39" stroke-width="2px" />
         <text text-anchor="middle" pointer-events="none" y="5" font-size="10px" fill="#604A0E" font-family="sans-serif">PFS1</text>
      </g>
      <g class="node" transform="translate(86.1735051687496,89.40755052282736)">
         <circle class="outline" cx="0" cy="0" r="25" fill="#FFD86E" stroke="#EDBA39" stroke-width="2px" />
         <text text-anchor="middle" pointer-events="none" y="0" font-size="10px" fill="#604A0E" font-family="sans-serif">Core</text>
         <text text-anchor="middle" pointer-events="none" y="10" font-size="10px" fill="#604A0E" font-family="sans-serif">Switch1</text>
      </g>
      <g class="node" transform="translate(-1.2300935902709966,221.66481644608362)">
         <circle class="outline" cx="0" cy="0" r="25" fill="#FFD86E" stroke="#EDBA39" stroke-width="2px" />
         <text text-anchor="middle" pointer-events="none" y="0" font-size="10px" fill="#604A0E" font-family="sans-serif">Edge</text>
         <text text-anchor="middle" pointer-events="none" y="10" font-size="10px" fill="#604A0E" font-family="sans-serif">Switch3</text>
      </g>
   </g>
</svg>
