<?xml version="1.0" encoding="UTF-8"?>
<svg xmlns="http://www.w3.org/2000/svg" width="443.0577392578125" height="494.36187744140625" viewBox="-272.60565185546875 -45.31150817871094 443.0577392578125 494.36187744140625">
   <title>Neo4j Graph Visualization</title>
   <desc>Created using Neo4j (http://www.neo4j.com/)</desc>
   <g class="layer relationships">
      <g class="relationship" transform="translate(-125.84984673101732 136.32834921707797) rotate(269.90842663911764)">
         <path class="outline" fill="#A5ABB6" stroke="none" d="M 24.018736134675446,6.953439040707552 L 24.277555179777966,5.987513214418485 A 196.02682623533227 196.02682623533227 0 0 0 63.81411476902428,12.346809601483358 L 63.75698525972938,13.345176377356694 A 197.02682623533227 197.02682623533227 0 0 1 24.018736134675446,6.953439040707552 Z M 81.79530848743165,13.550197182033855 L 81.76088537126753,12.55078983311472 A 196.02682623533227 196.02682623533227 0 0 0 121.4317703156264,7.091753066066107 L 120.72137664074106,4.177076269801568 L 128.35108178605788,5.919947290711091 L 122.37896188214017,10.977988794418824 L 121.66856820725484,8.063311998154287 A 197.02682623533227 197.02682623533227 0 0 1 81.79530848743165,13.550197182033855" />
         <text text-anchor="middle" pointer-events="none" font-size="8px" fill="#000000" x="72.77948177324363" y="16.154272664236203" transform="rotate(180 72.77948177324363 13.154272664236203)" font-family="sans-serif">IN</text>
      </g>
      <g class="relationship" transform="translate(-62.61340005151287 278.2397055982539) rotate(245.98199588144496)">
         <path class="outline" fill="#A5ABB6" stroke="none" d="M 24.018736134675446,6.953439040707552 L 24.277555179777966,5.987513214418485 A 201.3757803641546 201.3757803641546 0 0 0 65.1752797555475,12.536292027638126 L 65.11955228631281,13.53473804479313 A 202.3757803641546 202.3757803641546 0 0 1 24.018736134675446,6.953439040707552 Z M 83.15703113343564,13.736305929901903 L 83.12362995884415,12.736863904801936 A 201.3757803641546 201.3757803641546 0 0 0 124.15748748614583,7.1036662472472445 L 123.44598119120742,4.1892608546734795 L 131.07635111797433,5.929219124486621 L 125.10616254606369,10.989540104012264 L 124.39465625112528,8.0751347114385 A 202.3757803641546 202.3757803641546 0 0 1 83.15703113343564,13.736305929901903" />
         <text text-anchor="middle" pointer-events="none" font-size="8px" fill="#000000" x="74.14163189440843" y="16.33662264706416" transform="rotate(180 74.14163189440843 13.33662264706416)" font-family="sans-serif">IN</text>
      </g>
      <g class="relationship" transform="translate(35.58263096735246 261.3851339563031) rotate(217.76384476701725)">
         <path class="outline" fill="#A5ABB6" stroke="none" d="M 24.018736134675446,6.953439040707552 L 24.277555179777966,5.987513214418485 A 296.9176348345738 296.9176348345738 0 0 0 89.59372403349137,15.88071472420637 L 89.55488575473876,16.87996023363013 A 297.9176348345738 297.9176348345738 0 0 1 24.018736134675446,6.953439040707552 Z M 107.58172992386892,17.034770838377426 L 107.56005871254337,16.035005686654472 A 296.9176348345738 296.9176348345738 0 0 0 173.03650292374058,7.265022602404453 L 172.30992759861334,4.354337408688673 L 179.9491975965986,6.054794376060219 L 174.0052700239102,11.145936194025492 L 173.27869469878297,8.235251000309713 A 297.9176348345738 297.9176348345738 0 0 1 107.58172992386892,17.034770838377426" />
         <text text-anchor="middle" pointer-events="none" font-size="8px" fill="#000000" x="98.57143032176016" y="19.59376961340672" transform="rotate(180 98.57143032176016 16.59376961340672)" font-family="sans-serif">IN</text>
      </g>
      <g class="relationship" transform="translate(-243.60566943503287 257.33875185501233) rotate(314.21905978776033)">
         <path class="outline" fill="#A5ABB6" stroke="none" d="M 24.018736134675446,6.953439040707552 L 24.277555179777966,5.987513214418485 A 227.82467759713822 227.82467759713822 0 0 0 71.91696664382326,13.46875048862853 L 71.86725317923334,14.467514009907944 A 228.82467759713822 228.82467759713822 0 0 1 24.018736134675446,6.953439040707552 Z M 89.90103996125212,14.653564583983012 L 89.87194292790366,13.653987992295129 A 227.82467759713822 227.82467759713822 0 0 0 137.6555624827448,7.1572089417316205 L 136.9390557060816,4.244028885676775 L 144.57240040965,5.970889805526634 L 138.61090485162907,11.041449016471415 L 137.89439807496586,8.12826896041657 A 228.82467759713822 228.82467759713822 0 0 1 89.90103996125212,14.653564583983012" />
         <text text-anchor="middle" pointer-events="none" font-size="8px" fill="#000000" x="80.88747103272802" y="17.238300852250802" font-family="sans-serif">IN</text>
      </g>
      <g class="relationship" transform="translate(-156.87600934563625 281.6346826646517) rotate(282.0529380140041)">
         <path class="outline" fill="#A5ABB6" stroke="none" d="M 24.018736134675446,6.953439040707552 L 24.277555179777966,5.987513214418485 A 188.04896495174276 188.04896495174276 0 0 0 61.78556840709423,12.063525183563002 L 61.72620812124062,13.06176180704631 A 189.04896495174276 189.04896495174276 0 0 1 24.018736134675446,6.953439040707552 Z M 79.76586159136286,13.272154169071996 L 79.72979869690587,12.272804646810926 A 188.04896495174276 188.04896495174276 0 0 0 117.36931662079006,7.073221185868329 L 116.66065372688234,4.1581230909839855 L 124.28932265783816,5.9055241158977 L 118.31420047933369,10.960018645714122 L 117.60553758542598,8.044920550829778 A 189.04896495174276 189.04896495174276 0 0 1 79.76586159136286,13.272154169071996" />
         <text text-anchor="middle" pointer-events="none" font-size="8px" fill="#000000" x="70.74935470635492" y="15.882304382027627" font-family="sans-serif">IN</text>
      </g>
      <g class="relationship" transform="translate(-126.09380461094551 -16.31151091749038) rotate(449.90842663911764)">
         <path class="outline" fill="#A5ABB6" stroke="none" d="M 24.018736134675446,6.953439040707552 L 24.277555179777966,5.987513214418485 A 196.02682623533227 196.02682623533227 0 0 0 39.50797878612744,9.424754313364872 L 39.32685534982932,10.408214684108685 A 197.02682623533227 197.02682623533227 0 0 1 24.018736134675446,6.953439040707552 Z M 106.2858808097333,11.169260658664939 L 106.12715699406418,10.181937636377171 A 196.02682623533227 196.02682623533227 0 0 0 121.4317703156264,7.091753066066107 L 120.72137664074106,4.177076269801568 L 128.35108178605788,5.919947290711091 L 122.37896188214017,10.977988794418824 L 121.66856820725484,8.063311998154287 A 197.02682623533227 197.02682623533227 0 0 1 106.2858808097333,11.169260658664939" />
         <text text-anchor="middle" pointer-events="none" font-size="8px" fill="#000000" x="72.77948177324363" y="16.154272664236203" font-family="sans-serif">CONTAINS</text>
      </g>
      <g class="relationship" transform="translate(-125.84984673101732 136.32834921707797) rotate(494.21905978776033)">
         <path class="outline" fill="#A5ABB6" stroke="none" d="M 24.018736134675446,6.953439040707552 L 24.277555179777966,5.987513214418485 A 227.82467759713822 227.82467759713822 0 0 0 47.554107072854855,10.937755838529768 L 47.39745673106654,11.925409963422481 A 228.82467759713822 228.82467759713822 0 0 1 24.018736134675446,6.953439040707552 Z M 114.41807509755759,12.616846802100412 L 114.28183474647892,11.626170988961746 A 227.82467759713822 227.82467759713822 0 0 0 137.6555624827448,7.1572089417316205 L 136.9390557060816,4.244028885676775 L 144.57240040965,5.970889805526634 L 138.61090485162907,11.041449016471415 L 137.89439807496586,8.12826896041657 A 228.82467759713822 228.82467759713822 0 0 1 114.41807509755759,12.616846802100412" />
         <text text-anchor="middle" pointer-events="none" font-size="8px" fill="#000000" x="80.88747103272802" y="17.238300852250802" transform="rotate(180 80.88747103272802 14.238300852250802)" font-family="sans-serif">CONTAINS</text>
      </g>
      <g class="relationship" transform="translate(-125.84984673101732 136.32834921707797) rotate(462.0529380140041)">
         <path class="outline" fill="#A5ABB6" stroke="none" d="M 24.018736134675446,6.953439040707552 L 24.277555179777966,5.987513214418485 A 188.04896495174276 188.04896495174276 0 0 0 37.4979642586749,9.023429552915843 L 37.309448227908504,10.005499665557522 A 189.04896495174276 189.04896495174276 0 0 1 24.018736134675446,6.953439040707552 Z M 104.24725932116718,10.786180082066807 L 104.08169877124271,9.799980455059824 A 188.04896495174276 188.04896495174276 0 0 0 117.36931662079006,7.073221185868329 L 116.66065372688234,4.1581230909839855 L 124.28932265783816,5.9055241158977 L 118.31420047933369,10.960018645714122 L 117.60553758542598,8.044920550829778 A 189.04896495174276 189.04896495174276 0 0 1 104.24725932116718,10.786180082066807" />
         <text text-anchor="middle" pointer-events="none" font-size="8px" fill="#000000" x="70.74935470635492" y="15.882304382027627" transform="rotate(180 70.74935470635492 12.882304382027627)" font-family="sans-serif">CONTAINS</text>
      </g>
      <g class="relationship" transform="translate(31.416402543596973 420.0503788107403) rotate(236.45300441263856)">
         <path class="outline" fill="#A5ABB6" stroke="none" d="M 24.018736134675446,6.953439040707552 L 24.277555179777966,5.987513214418485 A 230.37799836969333 230.37799836969333 0 0 0 72.56867493978076,13.558428662424234 L 72.51947278562157,14.55721750298369 A 231.37799836969333 231.37799836969333 0 0 1 24.018736134675446,6.953439040707552 Z M 90.55294059701136,14.74189389550449 L 90.52420332763653,13.742306896114798 A 230.37799836969333 230.37799836969333 0 0 0 138.96024284342795,7.161950946740617 L 138.24329320627606,4.248879849464103 L 145.87690034326513,5.974580309598987 L 139.9161756929638,11.046045743109302 L 139.19922605581192,8.132974645832787 A 231.37799836969333 231.37799836969333 0 0 1 90.55294059701136,14.74189389550449" />
         <text text-anchor="middle" pointer-events="none" font-size="8px" fill="#000000" x="81.53952682769948" y="17.325347651994775" transform="rotate(180 81.53952682769948 14.325347651994775)" font-family="sans-serif">IN</text>
      </g>
      <g class="relationship" transform="translate(-125.84984673101732 136.32834921707797) rotate(425.98199588144496)">
         <path class="outline" fill="#A5ABB6" stroke="none" d="M 24.018736134675446,6.953439040707552 L 24.277555179777966,5.987513214418485 A 201.3757803641546 201.3757803641546 0 0 0 40.85784555994189,9.688334554182376 L 40.68136159182917,10.672638068856173 A 202.3757803641546 202.3757803641546 0 0 1 24.018736134675446,6.953439040707552 Z M 107.65307858256575,11.421043512340788 L 107.49863502135541,10.433041899791164 A 201.3757803641546 201.3757803641546 0 0 0 124.15748748614583,7.1036662472472445 L 123.44598119120742,4.1892608546734795 L 131.07635111797433,5.929219124486621 L 125.10616254606369,10.989540104012264 L 124.39465625112528,8.0751347114385 A 202.3757803641546 202.3757803641546 0 0 1 107.65307858256575,11.421043512340788" />
         <text text-anchor="middle" pointer-events="none" font-size="8px" fill="#000000" x="74.14163189440843" y="16.33662264706416" font-family="sans-serif">CONTAINS</text>
      </g>
      <g class="relationship" transform="translate(-62.61340005151287 278.2397055982539) rotate(416.45300441263856)">
         <path class="outline" fill="#A5ABB6" stroke="none" d="M 24.018736134675446,6.953439040707552 L 24.277555179777966,5.987513214418485 A 230.37799836969333 230.37799836969333 0 0 0 48.20217936521876,11.054311158131668 L 48.0472097517232,12.042230395161198 A 231.37799836969333 231.37799836969333 0 0 1 24.018736134675446,6.953439040707552 Z M 115.07157655380325,12.728610763122418 L 114.9368714044677,11.737725036743 A 230.37799836969333 230.37799836969333 0 0 0 138.96024284342795,7.161950946740617 L 138.24329320627606,4.248879849464103 L 145.87690034326513,5.974580309598987 L 139.9161756929638,11.046045743109302 L 139.19922605581192,8.132974645832787 A 231.37799836969333 231.37799836969333 0 0 1 115.07157655380325,12.728610763122418" />
         <text text-anchor="middle" pointer-events="none" font-size="8px" fill="#000000" x="81.53952682769948" y="17.325347651994775" font-family="sans-serif">CONTAINS</text>
      </g>
      <g class="relationship" transform="translate(35.58263096735246 261.3851339563031) rotate(451.50412566191073)">
         <path class="outline" fill="#A5ABB6" stroke="none" d="M 24.018736134675446,6.953439040707552 L 24.277555179777966,5.987513214418485 A 207.96568787562467 207.96568787562467 0 0 0 34.25847190468862,8.399455352652097 L 34.04764595319142,9.37697896780179 A 208.96568787562467 208.96568787562467 0 0 1 24.018736134675446,6.953439040707552 Z M 117.6756245379762,10.292559701223126 L 117.48625091874504,9.310654597692604 A 207.96568787562467 207.96568787562467 0 0 0 127.51758202064377,7.117811723278976 L 126.80475463172814,4.203729172352915 L 134.43591253762384,5.9402282409635285 L 128.46801853919794,11.003255124513723 L 127.75519115028231,8.089172573587662 A 208.96568787562467 208.96568787562467 0 0 1 117.6756245379762,10.292559701223126" />
         <text text-anchor="middle" pointer-events="none" font-size="8px" fill="#000000" x="75.82083644862867" y="16.56127950833465" transform="rotate(180 75.82083644862867 13.56127950833465)" font-family="sans-serif">CONDUIT_OF</text>
      </g>
      <g class="relationship" transform="translate(141.45207573128863 140.99844142873195) rotate(242.74901657983912)">
         <path class="outline" fill="#A5ABB6" stroke="none" d="M 24.018736134675446,6.953439040707552 L 24.277555179777966,5.987513214418485 A 237.98207478105604 237.98207478105604 0 0 0 41.83056208419818,9.985883699739077 L 41.645500724083355,10.968610667412406 A 238.98207478105604 238.98207478105604 0 0 1 24.018736134675446,6.953439040707552 Z M 125.38294902017051,11.807724431960196 L 125.2176182080992,10.821486264690321 A 237.98207478105604 237.98207478105604 0 0 0 142.84722572782826,7.17567268953131 L 142.1289946099495,4.262917282479314 L 149.7633601972627,5.9852593156562275 L 143.80486721833327,11.059346565600638 L 143.0866361004545,8.146591158548642 A 238.98207478105604 238.98207478105604 0 0 1 125.38294902017051,11.807724431960196" />
         <text text-anchor="middle" pointer-events="none" font-size="8px" fill="#000000" x="83.48219432615586" y="17.58458298281252" transform="rotate(180 83.48219432615586 14.58458298281252)" font-family="sans-serif">CONDUIT_OF</text>
      </g>
      <g class="relationship" transform="translate(61.762728028207846 -13.721464242896957) rotate(422.7490165798391)">
         <path class="outline" fill="#A5ABB6" stroke="none" d="M 24.018736134675446,6.953439040707552 L 24.277555179777966,5.987513214418485 A 237.98207478105604 237.98207478105604 0 0 0 41.83056208419818,9.985883699739077 L 41.645500724083355,10.968610667412406 A 238.98207478105604 238.98207478105604 0 0 1 24.018736134675446,6.953439040707552 Z M 125.38294902017051,11.807724431960196 L 125.2176182080992,10.821486264690321 A 237.98207478105604 237.98207478105604 0 0 0 142.84722572782826,7.17567268953131 L 142.1289946099495,4.262917282479314 L 149.7633601972627,5.9852593156562275 L 143.80486721833327,11.059346565600638 L 143.0866361004545,8.146591158548642 A 238.98207478105604 238.98207478105604 0 0 1 125.38294902017051,11.807724431960196" />
         <text text-anchor="middle" pointer-events="none" font-size="8px" fill="#000000" x="83.48219432615586" y="17.58458298281252" font-family="sans-serif">CONDUIT_OF</text>
      </g>
      <g class="relationship" transform="translate(35.58263096735246 261.3851339563031) rotate(311.32876965424896)">
         <path class="outline" fill="#A5ABB6" stroke="none" d="M 24.018736134675446,6.953439040707552 L 24.277555179777966,5.987513214418485 A 211.09786042769906 211.09786042769906 0 0 0 35.04599187760014,8.572179334353791 L 34.838184418669094,9.55034908445478 A 212.09786042769906 212.09786042769906 0 0 1 24.018736134675446,6.953439040707552 Z M 118.47996715706117,10.457331826205149 L 118.2934199413636,9.474885829564357 A 211.09786042769906 211.09786042769906 0 0 0 129.11537239779014,7.124338468333996 L 128.401935457351,4.210405090232017 L 136.03345643676795,5.945307836992962 L 130.066621651709,11.00958297246997 L 129.35318471126985,8.09564959436799 A 212.09786042769906 212.09786042769906 0 0 1 118.47996715706117,10.457331826205149" />
         <text text-anchor="middle" pointer-events="none" font-size="8px" fill="#000000" x="76.61934226013831" y="16.668059122979628" font-family="sans-serif">CONDUIT_OF</text>
      </g>
      <g class="relationship" transform="translate(31.416402543596973 420.0503788107403) rotate(271.50412566191073)">
         <path class="outline" fill="#A5ABB6" stroke="none" d="M 24.018736134675446,6.953439040707552 L 24.277555179777966,5.987513214418485 A 207.96568787562467 207.96568787562467 0 0 0 34.25847190468862,8.399455352652097 L 34.04764595319142,9.37697896780179 A 208.96568787562467 208.96568787562467 0 0 1 24.018736134675446,6.953439040707552 Z M 117.6756245379762,10.292559701223126 L 117.48625091874504,9.310654597692604 A 207.96568787562467 207.96568787562467 0 0 0 127.51758202064377,7.117811723278976 L 126.80475463172814,4.203729172352915 L 134.43591253762384,5.9402282409635285 L 128.46801853919794,11.003255124513723 L 127.75519115028231,8.089172573587662 A 208.96568787562467 208.96568787562467 0 0 1 117.6756245379762,10.292559701223126" />
         <text text-anchor="middle" pointer-events="none" font-size="8px" fill="#000000" x="75.82083644862867" y="16.56127950833465" font-family="sans-serif">CONDUIT_OF</text>
      </g>
      <g class="relationship" transform="translate(141.45207573128863 140.99844142873195) rotate(491.32876965424896)">
         <path class="outline" fill="#A5ABB6" stroke="none" d="M 24.018736134675446,6.953439040707552 L 24.277555179777966,5.987513214418485 A 211.09786042769906 211.09786042769906 0 0 0 35.04599187760014,8.572179334353791 L 34.838184418669094,9.55034908445478 A 212.09786042769906 212.09786042769906 0 0 1 24.018736134675446,6.953439040707552 Z M 118.47996715706117,10.457331826205149 L 118.2934199413636,9.474885829564357 A 211.09786042769906 211.09786042769906 0 0 0 129.11537239779014,7.124338468333996 L 128.401935457351,4.210405090232017 L 136.03345643676795,5.945307836992962 L 130.066621651709,11.00958297246997 L 129.35318471126985,8.09564959436799 A 212.09786042769906 212.09786042769906 0 0 1 118.47996715706117,10.457331826205149" />
         <text text-anchor="middle" pointer-events="none" font-size="8px" fill="#000000" x="76.61934226013831" y="16.668059122979628" transform="rotate(180 76.61934226013831 13.668059122979628)" font-family="sans-serif">CONDUIT_OF</text>
      </g>
      <g class="relationship" transform="translate(-125.84984673101732 136.32834921707797) rotate(397.76384476701725)">
         <path class="outline" fill="#A5ABB6" stroke="none" d="M 24.018736134675446,6.953439040707552 L 24.277555179777966,5.987513214418485 A 296.9176348345738 296.9176348345738 0 0 0 65.16106835226775,13.918575793860384 L 65.03994241924752,14.911212942243424 A 297.9176348345738 297.9176348345738 0 0 1 24.018736134675446,6.953439040707552 Z M 132.12686942283335,15.48734083477001 L 132.02280919981808,14.492769836808577 A 296.9176348345738 296.9176348345738 0 0 0 173.03650292374058,7.265022602404453 L 172.30992759861334,4.354337408688673 L 179.9491975965986,6.054794376060219 L 174.0052700239102,11.145936194025492 L 173.27869469878297,8.235251000309713 A 297.9176348345738 297.9176348345738 0 0 1 132.12686942283335,15.48734083477001" />
         <text text-anchor="middle" pointer-events="none" font-size="8px" fill="#000000" x="98.57143032176016" y="19.59376961340672" font-family="sans-serif">CONTAINS</text>
      </g>
   </g>
   <g class="layer nodes">
      <g class="node" transform="translate(-126.09380461094551,-16.31151091749038)">
         <circle class="outline" cx="0" cy="0" r="25" fill="#FB95AF" stroke="#E0849B" stroke-width="2px" />
         <text text-anchor="middle" pointer-events="none" y="0" font-size="10px" fill="#FFFFFF" font-family="sans-serif">Cluster</text>
         <text text-anchor="middle" pointer-events="none" y="10" font-size="10px" fill="#FFFFFF" font-family="sans-serif">A</text>
      </g>
      <g class="node" transform="translate(-125.84984673101732,136.32834921707797)">
         <circle class="outline" cx="0" cy="0" r="25" fill="#FB95AF" stroke="#E0849B" stroke-width="2px" />
         <text text-anchor="middle" pointer-events="none" y="5" font-size="10px" fill="#FFFFFF" font-family="sans-serif">Rack1</text>
      </g>
      <g class="node" transform="translate(-243.60566943503287,257.33875185501233)">
         <circle class="outline" cx="0" cy="0" r="25" fill="#FB95AF" stroke="#E0849B" stroke-width="2px" />
         <text text-anchor="middle" pointer-events="none" y="5" font-size="10px" fill="#FFFFFF" font-family="sans-serif">Node7</text>
      </g>
      <g class="node" transform="translate(-156.87600934563625,281.6346826646517)">
         <circle class="outline" cx="0" cy="0" r="25" fill="#FB95AF" stroke="#E0849B" stroke-width="2px" />
         <text text-anchor="middle" pointer-events="none" y="5" font-size="10px" fill="#FFFFFF" font-family="sans-serif">Node8</text>
      </g>
      <g class="node" transform="translate(-62.61340005151287,278.2397055982539)">
         <circle class="outline" cx="0" cy="0" r="25" fill="#FB95AF" stroke="#E0849B" stroke-width="2px" />
         <text text-anchor="middle" pointer-events="none" y="5" font-size="10px" fill="#FFFFFF" font-family="sans-serif">Node9</text>
      </g>
      <g class="node" transform="translate(31.416402543596973,420.0503788107403)">
         <circle class="outline" cx="0" cy="0" r="25" fill="#FFD86E" stroke="#EDBA39" stroke-width="2px" />
         <text text-anchor="middle" pointer-events="none" y="5" font-size="10px" fill="#604A0E" font-family="sans-serif">Nic1</text>
      </g>
      <g class="node" transform="translate(61.762728028207846,-13.721464242896957)">
         <circle class="outline" cx="0" cy="0" r="25" fill="#FFD86E" stroke="#EDBA39" stroke-width="2px" />
         <text text-anchor="middle" pointer-events="none" y="5" font-size="10px" fill="#604A0E" font-family="sans-serif">PFS1</text>
      </g>
      <g class="node" transform="translate(141.45207573128863,140.99844142873195)">
         <circle class="outline" cx="0" cy="0" r="25" fill="#FFD86E" stroke="#EDBA39" stroke-width="2px" />
         <text text-anchor="middle" pointer-events="none" y="0" font-size="10px" fill="#604A0E" font-family="sans-serif">Core</text>
         <text text-anchor="middle" pointer-events="none" y="10" font-size="10px" fill="#604A0E" font-family="sans-serif">Switch1</text>
      </g>
      <g class="node" transform="translate(35.58263096735246,261.3851339563031)">
         <circle class="outline" cx="0" cy="0" r="25" fill="#FFD86E" stroke="#EDBA39" stroke-width="2px" />
         <text text-anchor="middle" pointer-events="none" y="0" font-size="10px" fill="#604A0E" font-family="sans-serif">Edge</text>
         <text text-anchor="middle" pointer-events="none" y="10" font-size="10px" fill="#604A0E" font-family="sans-serif">Switch3</text>
      </g>
   </g>
</svg>
