<?xml version="1.0" encoding="UTF-8"?>
<svg xmlns="http://www.w3.org/2000/svg" width="243.65863037109375" height="388.4760437011719" viewBox="-207.19967651367188 -99.8860092163086 243.65863037109375 388.4760437011719">
   <title>Neo4j Graph Visualization</title>
   <desc>Created using Neo4j (http://www.neo4j.com/)</desc>
   <g class="layer relationships">
      <g class="relationship" transform="translate(-34.25047286558198 81.48320386977737) rotate(268.9395207908568)">
         <path class="outline" fill="#A5ABB6" stroke="none" d="M 24.018736134675446,6.953439040707552 L 24.277555179777966,5.987513214418485 A 195.54590943961898 195.54590943961898 0 0 0 63.69177562118113,12.32975633691504 L 63.634516509264394,13.328115688102002 A 196.54590943961898 196.54590943961898 0 0 1 24.018736134675446,6.953439040707552 Z M 81.67291746851889,13.533452647707804 L 81.63839954467495,12.534048568802007 A 195.54590943961898 195.54590943961898 0 0 0 121.18677962206405,7.0906622989567305 L 120.47648781866968,4.175960675457205 L 128.10613204412869,5.919098361619781 L 122.13383535992321,10.976931130289431 L 121.42354355652884,8.062229506789906 A 196.54590943961898 196.54590943961898 0 0 1 81.67291746851889,13.533452647707804" />
         <text text-anchor="middle" pointer-events="none" font-size="8px" fill="#000000" x="72.65705123562309" y="16.137877914913133" transform="rotate(180 72.65705123562309 13.137877914913133)" font-family="sans-serif">IN</text>
      </g>
      <g class="relationship" transform="translate(7.458960295139875 259.5900209768783) rotate(256.8198651469898)">
         <path class="outline" fill="#A5ABB6" stroke="none" d="M 24.018736134675446,6.953439040707552 L 24.277555179777966,5.987513214418485 A 255.36974861373395 255.36974861373395 0 0 0 78.95449661762771,14.433657259186305 L 78.90978649394076,15.432657261608654 A 256.3697486137339 256.3697486137339 0 0 1 24.018736134675446,6.953439040707552 Z M 96.94041955231141,15.604871029321941 L 96.91479909621714,14.605199287083792 A 255.36974861373395 255.36974861373395 0 0 0 151.7430921544493,7.204959119115587 L 151.02212599275381,4.292879485298871 L 158.65810566030422,6.008051347462268 L 152.70438037004325,11.08773196420454 L 151.98341420834777,8.175652330387825 A 256.3697486137339 256.3697486137339 0 0 1 96.94041955231141,15.604871029321941" />
         <text text-anchor="middle" pointer-events="none" font-size="8px" fill="#000000" x="87.92836386958996" y="18.177356331034332" transform="rotate(180 87.92836386958996 15.177356331034332)" font-family="sans-serif">IN</text>
      </g>
      <g class="relationship" transform="translate(-37.07097438045054 -70.88600549982903) rotate(448.9395207908568)">
         <path class="outline" fill="#A5ABB6" stroke="none" d="M 24.018736134675446,6.953439040707552 L 24.277555179777966,5.987513214418485 A 195.54590943961898 195.54590943961898 0 0 0 39.3866976149354,9.400847946052721 L 39.20514504131498,10.38422918596521 A 196.54590943961898 196.54590943961898 0 0 1 24.018736134675446,6.953439040707552 Z M 106.16297238096799,11.146431817938549 L 106.00385224595479,10.159172590261534 A 195.54590943961898 195.54590943961898 0 0 0 121.18677962206405,7.0906622989567305 L 120.47648781866968,4.175960675457205 L 128.10613204412869,5.919098361619781 L 122.13383535992321,10.976931130289431 L 121.42354355652884,8.062229506789906 A 196.54590943961898 196.54590943961898 0 0 1 106.16297238096799,11.146431817938549" />
         <text text-anchor="middle" pointer-events="none" font-size="8px" fill="#000000" x="72.65705123562309" y="16.137877914913133" font-family="sans-serif">CONTAINS</text>
      </g>
      <g class="relationship" transform="translate(-88.34171914920897 255.72613026101476) rotate(287.2462149053894)">
         <path class="outline" fill="#A5ABB6" stroke="none" d="M 24.018736134675446,6.953439040707552 L 24.277555179777966,5.987513214418485 A 254.43203388636942 254.43203388636942 0 0 0 78.71468403118381,14.40089290507018 L 78.6698204696731,15.399886028594352 A 255.43203388636942 255.43203388636942 0 0 1 24.018736134675446,6.953439040707552 Z M 96.70055129711162,15.572537314322915 L 96.67482570598902,14.572868272108735 A 254.43203388636942 254.43203388636942 0 0 0 151.26308101623576,7.20344919141289 L 150.54225586483446,4.29133465020623 L 158.17815247095152,6.006876261677601 L 152.22418121810418,11.086268579688436 L 151.50335606670288,8.174154038481776 A 255.43203388636942 255.43203388636942 0 0 1 96.70055129711162,15.572537314322915" />
         <text text-anchor="middle" pointer-events="none" font-size="8px" fill="#000000" x="87.68844940096272" y="18.14538822138323" font-family="sans-serif">IN</text>
      </g>
      <g class="relationship" transform="translate(-178.19967769028486 215.1572936311883) rotate(317.1196064837223)">
         <path class="outline" fill="#A5ABB6" stroke="none" d="M 24.018736134675446,6.953439040707552 L 24.277555179777966,5.987513214418485 A 281.7750435168294 281.7750435168294 0 0 0 85.7132555862872,15.354278081796338 L 85.67246756210028,16.353445904077944 A 282.7750435168294 282.7750435168294 0 0 1 24.018736134675446,6.953439040707552 Z M 103.7005798586263,16.514180625670974 L 103.67761362758506,15.514444384339413 A 281.7750435168294 281.7750435168294 0 0 0 165.27055841279397,7.2445761142096305 L 164.54589250888608,4.333414949362626 L 172.1840454480883,6.03888253256573 L 166.2367796180045,11.126124334005635 L 165.5121137140966,8.214963169158631 A 282.7750435168294 282.7750435168294 0 0 1 103.7005798586263,16.514180625670974" />
         <text text-anchor="middle" pointer-events="none" font-size="8px" fill="#000000" x="94.68970010743098" y="19.07754647654673" font-family="sans-serif">IN</text>
      </g>
      <g class="relationship" transform="translate(-34.25047286558198 81.48320386977737) rotate(497.1196064837223)">
         <path class="outline" fill="#A5ABB6" stroke="none" d="M 24.018736134675446,6.953439040707552 L 24.277555179777966,5.987513214418485 A 281.7750435168294 281.7750435168294 0 0 0 61.2919574415907,13.290616660360627 L 61.164499931561814,14.28246069201947 A 282.7750435168294 282.7750435168294 0 0 1 24.018736134675446,6.953439040707552 Z M 128.24157743540067,14.88050530148945 L 128.1318249120772,13.886546356852307 A 281.7750435168294 281.7750435168294 0 0 0 165.27055841279397,7.2445761142096305 L 164.54589250888608,4.333414949362626 L 172.1840454480883,6.03888253256573 L 166.2367796180045,11.126124334005635 L 165.5121137140966,8.214963169158631 A 282.7750435168294 282.7750435168294 0 0 1 128.24157743540067,14.88050530148945" />
         <text text-anchor="middle" pointer-events="none" font-size="8px" fill="#000000" x="94.68970010743098" y="19.07754647654673" transform="rotate(180 94.68970010743098 16.07754647654673)" font-family="sans-serif">CONTAINS</text>
      </g>
      <g class="relationship" transform="translate(-34.25047286558198 81.48320386977737) rotate(467.2462149053894)">
         <path class="outline" fill="#A5ABB6" stroke="none" d="M 24.018736134675446,6.953439040707552 L 24.277555179777966,5.987513214418485 A 254.43203388636942 254.43203388636942 0 0 0 54.3187504899532,12.124338870144072 L 54.1780030369034,13.114384401652615 A 255.43203388636942 255.43203388636942 0 0 1 24.018736134675446,6.953439040707552 Z M 121.23164305286267,13.756449178301523 L 121.10987981375007,12.763890004447973 A 254.43203388636942 254.43203388636942 0 0 0 151.26308101623576,7.20344919141289 L 150.54225586483446,4.29133465020623 L 158.17815247095152,6.006876261677601 L 152.22418121810418,11.086268579688436 L 151.50335606670288,8.174154038481776 A 255.43203388636942 255.43203388636942 0 0 1 121.23164305286267,13.756449178301523" />
         <text text-anchor="middle" pointer-events="none" font-size="8px" fill="#000000" x="87.68844940096272" y="18.14538822138323" transform="rotate(180 87.68844940096272 15.145388221383229)" font-family="sans-serif">CONTAINS</text>
      </g>
      <g class="relationship" transform="translate(-34.25047286558198 81.48320386977737) rotate(436.8198651469898)">
         <path class="outline" fill="#A5ABB6" stroke="none" d="M 24.018736134675446,6.953439040707552 L 24.277555179777966,5.987513214418485 A 255.36974861373395 255.36974861373395 0 0 0 54.55756812716976,12.165134220740384 L 54.41732230035862,13.155250935103908 A 256.3697486137339 256.3697486137339 0 0 1 24.018736134675446,6.953439040707552 Z M 121.47191535786172,13.795701221875959 L 121.35060695130451,12.80308635673515 A 255.36974861373395 255.36974861373395 0 0 0 151.7430921544493,7.204959119115587 L 151.02212599275381,4.292879485298871 L 158.65810566030422,6.008051347462268 L 152.70438037004325,11.08773196420454 L 151.98341420834777,8.175652330387825 A 256.3697486137339 256.3697486137339 0 0 1 121.47191535786172,13.795701221875959" />
         <text text-anchor="middle" pointer-events="none" font-size="8px" fill="#000000" x="87.92836386958996" y="18.177356331034332" font-family="sans-serif">CONTAINS</text>
      </g>
   </g>
   <g class="layer nodes">
      <g class="node" transform="translate(-37.07097438045054,-70.88600549982903)">
         <circle class="outline" cx="0" cy="0" r="25" fill="#FB95AF" stroke="#E0849B" stroke-width="2px" />
         <text text-anchor="middle" pointer-events="none" y="0" font-size="10px" fill="#FFFFFF" font-family="sans-serif">Cluster</text>
         <text text-anchor="middle" pointer-events="none" y="10" font-size="10px" fill="#FFFFFF" font-family="sans-serif">A</text>
      </g>
      <g class="node" transform="translate(-34.25047286558198,81.48320386977737)">
         <circle class="outline" cx="0" cy="0" r="25" fill="#FB95AF" stroke="#E0849B" stroke-width="2px" />
         <text text-anchor="middle" pointer-events="none" y="5" font-size="10px" fill="#FFFFFF" font-family="sans-serif">Rack1</text>
      </g>
      <g class="node" transform="translate(-178.19967769028486,215.1572936311883)">
         <circle class="outline" cx="0" cy="0" r="25" fill="#FB95AF" stroke="#E0849B" stroke-width="2px" />
         <text text-anchor="middle" pointer-events="none" y="5" font-size="10px" fill="#FFFFFF" font-family="sans-serif">Node7</text>
      </g>
      <g class="node" transform="translate(-88.34171914920897,255.72613026101476)">
         <circle class="outline" cx="0" cy="0" r="25" fill="#FB95AF" stroke="#E0849B" stroke-width="2px" />
         <text text-anchor="middle" pointer-events="none" y="5" font-size="10px" fill="#FFFFFF" font-family="sans-serif">Node8</text>
      </g>
      <g class="node" transform="translate(7.458960295139875,259.5900209768783)">
         <circle class="outline" cx="0" cy="0" r="25" fill="#FB95AF" stroke="#E0849B" stroke-width="2px" />
         <text text-anchor="middle" pointer-events="none" y="5" font-size="10px" fill="#FFFFFF" font-family="sans-serif">Node9</text>
      </g>
   </g>
</svg>
