<?xml version="1.0" encoding="UTF-8"?>
<svg xmlns="http://www.w3.org/2000/svg" width="162.30859375" height="169.46063232421875" viewBox="-39.15999984741211 -11.672401428222656 162.30859375 169.46063232421875">
   <title>Neo4j Graph Visualization</title>
   <desc>Created using Neo4j (http://www.neo4j.com/)</desc>
   <g class="layer relationships">
      <g class="relationship" transform="translate(94.14860106858181 128.788235926752) rotate(226.8984706640955)">
         <path class="outline" fill="#A5ABB6" stroke="none" d="M 24.018736134675446,6.953439040707552 L 24.277555179777966,5.987513214418485 A 196.0575360360429 196.0575360360429 0 0 0 63.821927189048154,12.347898469505736 L 63.764805935363356,13.346265717755358 A 197.0575360360429 197.0575360360429 0 0 1 24.018736134675446,6.953439040707552 Z M 81.80312420975665,13.551266366308397 L 81.76870713084453,12.551858809463255 A 196.0575360360429 196.0575360360429 0 0 0 121.44741505924674,7.091822606906486 L 120.73701488964143,4.177147393606594 L 128.36672391854736,5.9200014133774435 L 122.39461528538713,10.978056224639674 L 121.68421511578183,8.063381011339782 A 197.0575360360429 197.0575360360429 0 0 1 81.80312420975665,13.551266366308397" />
         <text text-anchor="middle" pointer-events="none" font-size="8px" fill="#000000" x="72.78730001287853" y="16.155319580684477" transform="rotate(180 72.78730001287853 13.155319580684477)" font-family="sans-serif">IN</text>
      </g>
      <g class="relationship" transform="translate(-10.159999370574951 17.327598296680293) rotate(406.8984706640955)">
         <path class="outline" fill="#A5ABB6" stroke="none" d="M 24.018736134675446,6.953439040707552 L 24.277555179777966,5.987513214418485 A 196.0575360360429 196.0575360360429 0 0 0 39.51572389162317,9.426279699612564 L 39.33462778959101,10.409745104102598 A 197.0575360360429 197.0575360360429 0 0 1 24.018736134675446,6.953439040707552 Z M 106.2937294258056,11.170717332951625 L 106.1350308517084,10.183390253114595 A 196.0575360360429 196.0575360360429 0 0 0 121.44741505924674,7.091822606906486 L 120.73701488964143,4.177147393606594 L 128.36672391854736,5.9200014133774435 L 122.39461528538713,10.978056224639674 L 121.68421511578183,8.063381011339782 A 197.0575360360429 197.0575360360429 0 0 1 106.2937294258056,11.170717332951625" />
         <text text-anchor="middle" pointer-events="none" font-size="8px" fill="#000000" x="72.78730001287853" y="16.155319580684477" font-family="sans-serif">CONTAINS</text>
      </g>
   </g>
   <g class="layer nodes">
      <g class="node" transform="translate(-10.159999370574951,17.327598296680293)">
         <circle class="outline" cx="0" cy="0" r="25" fill="#FB95AF" stroke="#E0849B" stroke-width="2px" />
         <text text-anchor="middle" pointer-events="none" y="0" font-size="10px" fill="#FFFFFF" font-family="sans-serif">Cluster</text>
         <text text-anchor="middle" pointer-events="none" y="10" font-size="10px" fill="#FFFFFF" font-family="sans-serif">A</text>
      </g>
      <g class="node" transform="translate(94.14860106858181,128.788235926752)">
         <circle class="outline" cx="0" cy="0" r="25" fill="#FB95AF" stroke="#E0849B" stroke-width="2px" />
         <text text-anchor="middle" pointer-events="none" y="5" font-size="10px" fill="#FFFFFF" font-family="sans-serif">Rack1</text>
      </g>
   </g>
</svg>
