<?xml version="1.0" encoding="UTF-8" standalone="no"?>
<!DOCTYPE svg PUBLIC "-//W3C//DTD SVG 1.1//EN"
 "http://www.w3.org/Graphics/SVG/1.1/DTD/svg11.dtd">
<!-- Generated by graphviz version 2.43.0 (0)
 -->
<!-- Title: states Pages: 1 -->
<svg width="946pt" height="188pt"
 viewBox="0.00 0.00 946.16 188.00" xmlns="http://www.w3.org/2000/svg" xmlns:xlink="http://www.w3.org/1999/xlink">
<g id="graph0" class="graph" transform="scale(1 1) rotate(0) translate(4 184)">
<title>states</title>
<polygon fill="white" stroke="transparent" points="-4,4 -4,-184 942.16,-184 942.16,4 -4,4"/>
<g id="clust1" class="cluster">
<title>cluster_main</title>
<polygon fill="none" stroke="black" points="140,-8 140,-172 802,-172 802,-8 140,-8"/>
<text text-anchor="middle" x="471" y="-156.8" font-family="Times,serif" font-size="14.00">active</text>
</g>
<!-- INACTIVE -->
<g id="node1" class="node">
<title>INACTIVE</title>
<ellipse fill="none" stroke="black" cx="903.08" cy="-63" rx="31.15" ry="31.15"/>
<ellipse fill="none" stroke="black" cx="903.08" cy="-63" rx="35.16" ry="35.16"/>
<text text-anchor="middle" x="903.08" y="-61.1" font-family="Times,serif" font-size="8.00">INACTIVE</text>
</g>
<!-- DEPEND -->
<g id="node2" class="node">
<title>DEPEND</title>
<ellipse fill="none" stroke="black" cx="175" cy="-79" rx="27" ry="27"/>
<text text-anchor="middle" x="175" y="-77.1" font-family="Times,serif" font-size="8.00">DEPEND</text>
</g>
<!-- PRIORITY -->
<g id="node3" class="node">
<title>PRIORITY</title>
<ellipse fill="none" stroke="black" cx="319.5" cy="-79" rx="27" ry="27"/>
<text text-anchor="middle" x="319.5" y="-77.1" font-family="Times,serif" font-size="8.00">PRIORITY</text>
</g>
<!-- DEPEND&#45;&gt;PRIORITY -->
<g id="edge2" class="edge">
<title>DEPEND&#45;&gt;PRIORITY</title>
<path fill="none" stroke="black" d="M202.14,-79C224.49,-79 256.92,-79 281.86,-79"/>
<polygon fill="black" stroke="black" points="282.05,-82.5 292.05,-79 282.05,-75.5 282.05,-82.5"/>
<text text-anchor="middle" x="246.5" y="-82.8" font-family="Times,serif" font-size="14.00">depend</text>
</g>
<!-- CLEANUP -->
<g id="node6" class="node">
<title>CLEANUP</title>
<ellipse fill="none" stroke="black" cx="764.5" cy="-63" rx="27" ry="27"/>
<text text-anchor="middle" x="764.5" y="-61.1" font-family="Times,serif" font-size="8.00">CLEANUP</text>
</g>
<!-- DEPEND&#45;&gt;CLEANUP -->
<g id="edge9" class="edge">
<title>DEPEND&#45;&gt;CLEANUP</title>
<path fill="none" stroke="red" d="M199.92,-90.22C206.35,-92.99 213.37,-95.79 220,-98 250.79,-108.25 258.92,-110.13 291,-115 452.76,-139.58 496.92,-127.4 659,-105 685.08,-101.4 692.64,-102.97 717,-93 722.58,-90.72 728.22,-87.75 733.56,-84.57"/>
<polygon fill="red" stroke="red" points="735.61,-87.41 742.18,-79.1 731.86,-81.5 735.61,-87.41"/>
<text text-anchor="middle" x="500" y="-131.8" font-family="Times,serif" font-size="14.00">exception</text>
</g>
<!-- SCHED -->
<g id="node4" class="node">
<title>SCHED</title>
<ellipse fill="none" stroke="black" cx="500" cy="-63" rx="27" ry="27"/>
<text text-anchor="middle" x="500" y="-61.1" font-family="Times,serif" font-size="8.00">SCHED</text>
</g>
<!-- PRIORITY&#45;&gt;SCHED -->
<g id="edge3" class="edge">
<title>PRIORITY&#45;&gt;SCHED</title>
<path fill="none" stroke="black" d="M344.65,-89.19C351.44,-91.59 358.9,-93.79 366,-95 401.49,-101.06 412.36,-104.8 447,-95 454.75,-92.81 462.47,-89.1 469.51,-84.97"/>
<polygon fill="black" stroke="black" points="471.42,-87.9 478,-79.59 467.68,-81.98 471.42,-87.9"/>
<text text-anchor="middle" x="406.5" y="-104.8" font-family="Times,serif" font-size="14.00">priority</text>
</g>
<!-- PRIORITY&#45;&gt;CLEANUP -->
<g id="edge10" class="edge">
<title>PRIORITY&#45;&gt;CLEANUP</title>
<path fill="none" stroke="red" d="M335.36,-56.83C343.21,-47.06 353.77,-36.55 366,-31 397.3,-16.79 595.85,-16.43 659,-27 683.56,-31.11 710.07,-40.3 730.25,-48.37"/>
<polygon fill="red" stroke="red" points="729.02,-51.65 739.6,-52.21 731.68,-45.18 729.02,-51.65"/>
</g>
<!-- SCHED&#45;&gt;PRIORITY -->
<g id="edge7" class="edge">
<title>SCHED&#45;&gt;PRIORITY</title>
<path fill="none" stroke="black" d="M475.51,-51.29C466.78,-47.54 456.65,-43.88 447,-42 411.66,-35.13 399.92,-29.95 366,-42 359.01,-44.48 352.31,-48.55 346.31,-53.1"/>
<polygon fill="black" stroke="black" points="344.05,-50.42 338.58,-59.5 348.52,-55.81 344.05,-50.42"/>
<text text-anchor="middle" x="406.5" y="-45.8" font-family="Times,serif" font-size="14.00">flux&#45;restart</text>
</g>
<!-- SCHED&#45;&gt;PRIORITY -->
<g id="edge8" class="edge">
<title>SCHED&#45;&gt;PRIORITY</title>
<path fill="none" stroke="black" d="M473.01,-65.33C442.33,-68.08 391.11,-72.67 356.59,-75.76"/>
<polygon fill="black" stroke="black" points="356.1,-72.29 346.46,-76.67 356.73,-79.27 356.1,-72.29"/>
<text text-anchor="middle" x="406.5" y="-77.8" font-family="Times,serif" font-size="14.00">urgency</text>
</g>
<!-- RUN -->
<g id="node5" class="node">
<title>RUN</title>
<ellipse fill="none" stroke="black" cx="632" cy="-63" rx="27" ry="27"/>
<text text-anchor="middle" x="632" y="-61.1" font-family="Times,serif" font-size="8.00">RUN</text>
</g>
<!-- SCHED&#45;&gt;RUN -->
<g id="edge4" class="edge">
<title>SCHED&#45;&gt;RUN</title>
<path fill="none" stroke="black" d="M527.31,-63C546.69,-63 573.29,-63 594.7,-63"/>
<polygon fill="black" stroke="black" points="594.73,-66.5 604.73,-63 594.73,-59.5 594.73,-66.5"/>
<text text-anchor="middle" x="570" y="-66.8" font-family="Times,serif" font-size="14.00">alloc</text>
</g>
<!-- SCHED&#45;&gt;CLEANUP -->
<g id="edge11" class="edge">
<title>SCHED&#45;&gt;CLEANUP</title>
<path fill="none" stroke="red" d="M524.76,-73.91C545.44,-82.75 576.51,-94.46 605,-99 654.72,-106.92 669.48,-98.62 717,-82 721.28,-80.5 725.75,-78.83 730.14,-77.11"/>
<polygon fill="red" stroke="red" points="731.57,-80.31 739.55,-73.34 728.96,-73.81 731.57,-80.31"/>
</g>
<!-- RUN&#45;&gt;CLEANUP -->
<g id="edge5" class="edge">
<title>RUN&#45;&gt;CLEANUP</title>
<path fill="none" stroke="black" d="M659.09,-63C678.65,-63 705.66,-63 727.31,-63"/>
<polygon fill="black" stroke="black" points="727.45,-66.5 737.45,-63 727.45,-59.5 727.45,-66.5"/>
<text text-anchor="middle" x="697" y="-66.8" font-family="Times,serif" font-size="14.00">finish</text>
</g>
<!-- RUN&#45;&gt;CLEANUP -->
<g id="edge12" class="edge">
<title>RUN&#45;&gt;CLEANUP</title>
<path fill="none" stroke="red" d="M659.03,-60.24C664.93,-59.72 671.18,-59.26 677,-59 694.76,-58.19 699.24,-58.24 717,-59 720.32,-59.14 723.77,-59.34 727.22,-59.58"/>
<polygon fill="red" stroke="red" points="727.22,-63.09 737.46,-60.36 727.75,-56.11 727.22,-63.09"/>
</g>
<!-- CLEANUP&#45;&gt;INACTIVE -->
<g id="edge6" class="edge">
<title>CLEANUP&#45;&gt;INACTIVE</title>
<path fill="none" stroke="black" d="M791.51,-63C810.22,-63 835.91,-63 857.81,-63"/>
<polygon fill="black" stroke="black" points="857.9,-66.5 867.9,-63 857.9,-59.5 857.9,-66.5"/>
<text text-anchor="middle" x="831" y="-66.8" font-family="Times,serif" font-size="14.00">clean</text>
</g>
<!-- NEW -->
<g id="node7" class="node">
<title>NEW</title>
<ellipse fill="none" stroke="black" cx="27" cy="-79" rx="27" ry="27"/>
<text text-anchor="middle" x="27" y="-77.1" font-family="Times,serif" font-size="8.00">NEW</text>
</g>
<!-- NEW&#45;&gt;DEPEND -->
<g id="edge1" class="edge">
<title>NEW&#45;&gt;DEPEND</title>
<path fill="none" stroke="black" d="M54.1,-79C77.31,-79 111.5,-79 137.43,-79"/>
<polygon fill="black" stroke="black" points="137.63,-82.5 147.63,-79 137.63,-75.5 137.63,-82.5"/>
<text text-anchor="middle" x="101" y="-82.8" font-family="Times,serif" font-size="14.00">validate</text>
</g>
</g>
</svg>
