<?xml version="1.0" encoding="UTF-8" standalone="no"?>
<!DOCTYPE svg PUBLIC "-//W3C//DTD SVG 1.1//EN"
 "http://www.w3.org/Graphics/SVG/1.1/DTD/svg11.dtd">
<!-- Generated by graphviz version 2.43.0 (0)
 -->
<!-- Title: states Pages: 1 -->
<svg width="853pt" height="168pt"
 viewBox="0.00 0.00 853.16 168.00" xmlns="http://www.w3.org/2000/svg" xmlns:xlink="http://www.w3.org/1999/xlink">
<g id="graph0" class="graph" transform="scale(1 1) rotate(0) translate(4 164)">
<title>states</title>
<polygon fill="white" stroke="transparent" points="-4,4 -4,-164 849.16,-164 849.16,4 -4,4"/>
<g id="clust1" class="cluster">
<title>cluster_main</title>
<polygon fill="none" stroke="black" points="83,-8 83,-152 746,-152 746,-8 83,-8"/>
<text text-anchor="middle" x="414.5" y="-136.8" font-family="Times,serif" font-size="14.00">active</text>
</g>
<!-- INACTIVE -->
<g id="node1" class="node">
<title>INACTIVE</title>
<ellipse fill="none" stroke="black" cx="810.08" cy="-43" rx="31.15" ry="31.15"/>
<ellipse fill="none" stroke="black" cx="810.08" cy="-43" rx="35.16" ry="35.16"/>
<text text-anchor="middle" x="810.08" y="-41.1" font-family="Times,serif" font-size="8.00">INACTIVE</text>
</g>
<!-- DEPEND -->
<g id="node2" class="node">
<title>DEPEND</title>
<ellipse fill="none" stroke="black" cx="118" cy="-45" rx="27" ry="27"/>
<text text-anchor="middle" x="118" y="-43.1" font-family="Times,serif" font-size="8.00">DEPEND</text>
</g>
<!-- PRIORITY -->
<g id="node3" class="node">
<title>PRIORITY</title>
<ellipse fill="none" stroke="black" cx="262.5" cy="-45" rx="27" ry="27"/>
<text text-anchor="middle" x="262.5" y="-43.1" font-family="Times,serif" font-size="8.00">PRIORITY</text>
</g>
<!-- DEPEND&#45;&gt;PRIORITY -->
<g id="edge2" class="edge">
<title>DEPEND&#45;&gt;PRIORITY</title>
<path fill="none" stroke="black" d="M145.14,-45C167.49,-45 199.92,-45 224.86,-45"/>
<polygon fill="black" stroke="black" points="225.05,-48.5 235.05,-45 225.05,-41.5 225.05,-48.5"/>
<text text-anchor="middle" x="189.5" y="-48.8" font-family="Times,serif" font-size="14.00">depend</text>
</g>
<!-- CLEANUP -->
<g id="node6" class="node">
<title>CLEANUP</title>
<ellipse fill="none" stroke="black" cx="708.5" cy="-43" rx="27" ry="27"/>
<text text-anchor="middle" x="708.5" y="-41.1" font-family="Times,serif" font-size="8.00">CLEANUP</text>
</g>
<!-- DEPEND&#45;&gt;CLEANUP -->
<g id="edge8" class="edge">
<title>DEPEND&#45;&gt;CLEANUP</title>
<path fill="none" stroke="red" d="M142.92,-56.22C149.35,-58.99 156.37,-61.79 163,-64 193.79,-74.25 201.81,-76.94 234,-81 396.73,-101.52 439.28,-95.84 603,-86 628.92,-84.44 636.98,-88.86 661,-79 667.88,-76.18 674.62,-72.04 680.73,-67.57"/>
<polygon fill="red" stroke="red" points="682.93,-70.29 688.63,-61.36 678.6,-64.79 682.93,-70.29"/>
<text text-anchor="middle" x="444" y="-97.8" font-family="Times,serif" font-size="14.00">exception</text>
</g>
<!-- SCHED -->
<g id="node4" class="node">
<title>SCHED</title>
<ellipse fill="none" stroke="black" cx="444" cy="-43" rx="27" ry="27"/>
<text text-anchor="middle" x="444" y="-41.1" font-family="Times,serif" font-size="8.00">SCHED</text>
</g>
<!-- PRIORITY&#45;&gt;SCHED -->
<g id="edge3" class="edge">
<title>PRIORITY&#45;&gt;SCHED</title>
<path fill="none" stroke="black" d="M289.43,-40.98C295.81,-40.16 302.64,-39.42 309,-39 345.37,-36.61 354.58,-37.6 391,-39 396.18,-39.2 401.65,-39.51 407.01,-39.87"/>
<polygon fill="black" stroke="black" points="406.87,-43.37 417.1,-40.61 407.39,-36.39 406.87,-43.37"/>
<text text-anchor="middle" x="350" y="-42.8" font-family="Times,serif" font-size="14.00">priority</text>
</g>
<!-- SCHED&#45;&gt;PRIORITY -->
<g id="edge7" class="edge">
<title>SCHED&#45;&gt;PRIORITY</title>
<path fill="none" stroke="black" d="M417.78,-49.44C409.33,-51.3 399.81,-53.08 391,-54 354.75,-57.79 345.27,-57.55 309,-54 305.71,-53.68 302.31,-53.23 298.92,-52.7"/>
<polygon fill="black" stroke="black" points="299.33,-49.22 288.88,-50.93 298.12,-56.11 299.33,-49.22"/>
<text text-anchor="middle" x="350" y="-59.8" font-family="Times,serif" font-size="14.00">flux restart</text>
</g>
<!-- RUN -->
<g id="node5" class="node">
<title>RUN</title>
<ellipse fill="none" stroke="black" cx="576" cy="-43" rx="27" ry="27"/>
<text text-anchor="middle" x="576" y="-41.1" font-family="Times,serif" font-size="8.00">RUN</text>
</g>
<!-- SCHED&#45;&gt;RUN -->
<g id="edge4" class="edge">
<title>SCHED&#45;&gt;RUN</title>
<path fill="none" stroke="black" d="M471.31,-43C490.69,-43 517.29,-43 538.7,-43"/>
<polygon fill="black" stroke="black" points="538.73,-46.5 548.73,-43 538.73,-39.5 538.73,-46.5"/>
<text text-anchor="middle" x="514" y="-46.8" font-family="Times,serif" font-size="14.00">alloc</text>
</g>
<!-- SCHED&#45;&gt;CLEANUP -->
<g id="edge9" class="edge">
<title>SCHED&#45;&gt;CLEANUP</title>
<path fill="none" stroke="red" d="M468.76,-53.91C489.44,-62.75 520.51,-74.46 549,-79 598.39,-86.87 613.85,-84.7 661,-68 665.95,-66.25 671.01,-64.03 675.89,-61.64"/>
<polygon fill="red" stroke="red" points="677.71,-64.63 684.96,-56.91 674.48,-58.43 677.71,-64.63"/>
</g>
<!-- RUN&#45;&gt;CLEANUP -->
<g id="edge5" class="edge">
<title>RUN&#45;&gt;CLEANUP</title>
<path fill="none" stroke="black" d="M603.09,-43C622.65,-43 649.66,-43 671.31,-43"/>
<polygon fill="black" stroke="black" points="671.45,-46.5 681.45,-43 671.45,-39.5 671.45,-46.5"/>
<text text-anchor="middle" x="641" y="-46.8" font-family="Times,serif" font-size="14.00">finish</text>
</g>
<!-- RUN&#45;&gt;CLEANUP -->
<g id="edge10" class="edge">
<title>RUN&#45;&gt;CLEANUP</title>
<path fill="none" stroke="red" d="M600.17,-55.09C606.73,-57.93 613.99,-60.55 621,-62 638.41,-65.6 643.56,-65.43 661,-62 665.45,-61.13 670.02,-59.82 674.46,-58.3"/>
<polygon fill="red" stroke="red" points="675.82,-61.53 683.92,-54.7 673.32,-54.99 675.82,-61.53"/>
</g>
<!-- CLEANUP&#45;&gt;INACTIVE -->
<g id="edge6" class="edge">
<title>CLEANUP&#45;&gt;INACTIVE</title>
<path fill="none" stroke="black" d="M735.66,-43C744.56,-43 754.77,-43 764.68,-43"/>
<polygon fill="black" stroke="black" points="764.85,-46.5 774.85,-43 764.85,-39.5 764.85,-46.5"/>
</g>
<!-- NEW -->
<g id="node7" class="node">
<title>NEW</title>
<ellipse fill="none" stroke="black" cx="27" cy="-45" rx="27" ry="27"/>
<text text-anchor="middle" x="27" y="-43.1" font-family="Times,serif" font-size="8.00">NEW</text>
</g>
<!-- NEW&#45;&gt;DEPEND -->
<g id="edge1" class="edge">
<title>NEW&#45;&gt;DEPEND</title>
<path fill="none" stroke="black" d="M54.22,-45C62.55,-45 71.91,-45 80.82,-45"/>
<polygon fill="black" stroke="black" points="80.97,-48.5 90.97,-45 80.97,-41.5 80.97,-48.5"/>
</g>
</g>
</svg>
