<?xml version="1.0" encoding="UTF-8" standalone="no"?>
<!DOCTYPE svg PUBLIC "-//W3C//DTD SVG 1.1//EN"
 "http://www.w3.org/Graphics/SVG/1.1/DTD/svg11.dtd">
<!-- Generated by graphviz version 2.43.0 (0)
 -->
<!-- Title: states Pages: 1 -->
<svg width="852pt" height="179pt"
 viewBox="0.00 0.00 852.16 179.00" xmlns="http://www.w3.org/2000/svg" xmlns:xlink="http://www.w3.org/1999/xlink">
<g id="graph0" class="graph" transform="scale(1 1) rotate(0) translate(4 175)">
<title>states</title>
<polygon fill="white" stroke="transparent" points="-4,4 -4,-175 848.16,-175 848.16,4 -4,4"/>
<g id="clust1" class="cluster">
<title>cluster_main</title>
<polygon fill="none" stroke="black" points="83,-8 83,-163 745,-163 745,-8 83,-8"/>
<text text-anchor="middle" x="414" y="-147.8" font-family="Times,serif" font-size="14.00">active</text>
</g>
<!-- INACTIVE -->
<g id="node1" class="node">
<title>INACTIVE</title>
<ellipse fill="none" stroke="black" cx="809.08" cy="-54" rx="31.15" ry="31.15"/>
<ellipse fill="none" stroke="black" cx="809.08" cy="-54" rx="35.16" ry="35.16"/>
<text text-anchor="middle" x="809.08" y="-52.1" font-family="Times,serif" font-size="8.00">INACTIVE</text>
</g>
<!-- DEPEND -->
<g id="node2" class="node">
<title>DEPEND</title>
<ellipse fill="none" stroke="black" cx="118" cy="-72" rx="27" ry="27"/>
<text text-anchor="middle" x="118" y="-70.1" font-family="Times,serif" font-size="8.00">DEPEND</text>
</g>
<!-- PRIORITY -->
<g id="node3" class="node">
<title>PRIORITY</title>
<ellipse fill="none" stroke="black" cx="262.5" cy="-72" rx="27" ry="27"/>
<text text-anchor="middle" x="262.5" y="-70.1" font-family="Times,serif" font-size="8.00">PRIORITY</text>
</g>
<!-- DEPEND&#45;&gt;PRIORITY -->
<g id="edge2" class="edge">
<title>DEPEND&#45;&gt;PRIORITY</title>
<path fill="none" stroke="black" d="M145.14,-72C167.49,-72 199.92,-72 224.86,-72"/>
<polygon fill="black" stroke="black" points="225.05,-75.5 235.05,-72 225.05,-68.5 225.05,-75.5"/>
<text text-anchor="middle" x="189.5" y="-75.8" font-family="Times,serif" font-size="14.00">depend</text>
</g>
<!-- CLEANUP -->
<g id="node6" class="node">
<title>CLEANUP</title>
<ellipse fill="none" stroke="black" cx="707.5" cy="-54" rx="27" ry="27"/>
<text text-anchor="middle" x="707.5" y="-52.1" font-family="Times,serif" font-size="8.00">CLEANUP</text>
</g>
<!-- DEPEND&#45;&gt;CLEANUP -->
<g id="edge9" class="edge">
<title>DEPEND&#45;&gt;CLEANUP</title>
<path fill="none" stroke="red" d="M142.92,-83.22C149.35,-85.99 156.37,-88.79 163,-91 193.79,-101.25 201.83,-103.77 234,-108 396.23,-129.35 439.04,-111.82 602,-97 627.86,-94.65 635.98,-99.86 660,-90 666.88,-87.18 673.62,-83.04 679.73,-78.57"/>
<polygon fill="red" stroke="red" points="681.93,-81.29 687.63,-72.36 677.6,-75.79 681.93,-81.29"/>
<text text-anchor="middle" x="443" y="-119.8" font-family="Times,serif" font-size="14.00">exception</text>
</g>
<!-- SCHED -->
<g id="node4" class="node">
<title>SCHED</title>
<ellipse fill="none" stroke="black" cx="443" cy="-54" rx="27" ry="27"/>
<text text-anchor="middle" x="443" y="-52.1" font-family="Times,serif" font-size="8.00">SCHED</text>
</g>
<!-- PRIORITY&#45;&gt;SCHED -->
<g id="edge3" class="edge">
<title>PRIORITY&#45;&gt;SCHED</title>
<path fill="none" stroke="black" d="M281.58,-52.5C289.28,-45.58 298.83,-38.61 309,-35 342.92,-22.95 354.55,-28.73 390,-35 396.06,-36.07 402.35,-37.8 408.36,-39.78"/>
<polygon fill="black" stroke="black" points="407.55,-43.21 418.15,-43.3 409.92,-36.62 407.55,-43.21"/>
<text text-anchor="middle" x="349.5" y="-38.8" font-family="Times,serif" font-size="14.00">priority</text>
</g>
<!-- SCHED&#45;&gt;PRIORITY -->
<g id="edge7" class="edge">
<title>SCHED&#45;&gt;PRIORITY</title>
<path fill="none" stroke="black" d="M416.01,-56.62C385.33,-59.71 334.11,-64.88 299.59,-68.36"/>
<polygon fill="black" stroke="black" points="299.05,-64.9 289.46,-69.38 299.76,-71.86 299.05,-64.9"/>
<text text-anchor="middle" x="349.5" y="-70.8" font-family="Times,serif" font-size="14.00">flux&#45;restart</text>
</g>
<!-- SCHED&#45;&gt;PRIORITY -->
<g id="edge8" class="edge">
<title>SCHED&#45;&gt;PRIORITY</title>
<path fill="none" stroke="black" d="M421,-70.59C411.99,-76.7 401.02,-82.88 390,-86 355.36,-95.8 344.6,-91.35 309,-86 305.35,-85.45 301.59,-84.67 297.87,-83.75"/>
<polygon fill="black" stroke="black" points="298.79,-80.37 288.22,-81.07 296.92,-87.12 298.79,-80.37"/>
<text text-anchor="middle" x="349.5" y="-94.8" font-family="Times,serif" font-size="14.00">urgency</text>
</g>
<!-- RUN -->
<g id="node5" class="node">
<title>RUN</title>
<ellipse fill="none" stroke="black" cx="575" cy="-54" rx="27" ry="27"/>
<text text-anchor="middle" x="575" y="-52.1" font-family="Times,serif" font-size="8.00">RUN</text>
</g>
<!-- SCHED&#45;&gt;RUN -->
<g id="edge4" class="edge">
<title>SCHED&#45;&gt;RUN</title>
<path fill="none" stroke="black" d="M470.31,-54C489.69,-54 516.29,-54 537.7,-54"/>
<polygon fill="black" stroke="black" points="537.73,-57.5 547.73,-54 537.73,-50.5 537.73,-57.5"/>
<text text-anchor="middle" x="513" y="-57.8" font-family="Times,serif" font-size="14.00">alloc</text>
</g>
<!-- SCHED&#45;&gt;CLEANUP -->
<g id="edge10" class="edge">
<title>SCHED&#45;&gt;CLEANUP</title>
<path fill="none" stroke="red" d="M467.76,-64.91C488.44,-73.75 519.51,-85.46 548,-90 597.39,-97.87 612.85,-95.7 660,-79 664.95,-77.25 670.01,-75.03 674.89,-72.64"/>
<polygon fill="red" stroke="red" points="676.71,-75.63 683.96,-67.91 673.48,-69.43 676.71,-75.63"/>
</g>
<!-- RUN&#45;&gt;CLEANUP -->
<g id="edge5" class="edge">
<title>RUN&#45;&gt;CLEANUP</title>
<path fill="none" stroke="black" d="M602.09,-54C621.65,-54 648.66,-54 670.31,-54"/>
<polygon fill="black" stroke="black" points="670.45,-57.5 680.45,-54 670.45,-50.5 670.45,-57.5"/>
<text text-anchor="middle" x="640" y="-57.8" font-family="Times,serif" font-size="14.00">finish</text>
</g>
<!-- RUN&#45;&gt;CLEANUP -->
<g id="edge11" class="edge">
<title>RUN&#45;&gt;CLEANUP</title>
<path fill="none" stroke="red" d="M599.17,-66.09C605.73,-68.93 612.99,-71.55 620,-73 637.41,-76.6 642.56,-76.43 660,-73 664.45,-72.13 669.02,-70.82 673.46,-69.3"/>
<polygon fill="red" stroke="red" points="674.82,-72.53 682.92,-65.7 672.32,-65.99 674.82,-72.53"/>
</g>
<!-- CLEANUP&#45;&gt;INACTIVE -->
<g id="edge6" class="edge">
<title>CLEANUP&#45;&gt;INACTIVE</title>
<path fill="none" stroke="black" d="M734.66,-54C743.56,-54 753.77,-54 763.68,-54"/>
<polygon fill="black" stroke="black" points="763.85,-57.5 773.85,-54 763.85,-50.5 763.85,-57.5"/>
</g>
<!-- NEW -->
<g id="node7" class="node">
<title>NEW</title>
<ellipse fill="none" stroke="black" cx="27" cy="-72" rx="27" ry="27"/>
<text text-anchor="middle" x="27" y="-70.1" font-family="Times,serif" font-size="8.00">NEW</text>
</g>
<!-- NEW&#45;&gt;DEPEND -->
<g id="edge1" class="edge">
<title>NEW&#45;&gt;DEPEND</title>
<path fill="none" stroke="black" d="M54.22,-72C62.55,-72 71.91,-72 80.82,-72"/>
<polygon fill="black" stroke="black" points="80.97,-75.5 90.97,-72 80.97,-68.5 80.97,-75.5"/>
</g>
</g>
</svg>
