<?xml version="1.0" encoding="UTF-8" standalone="no"?>
<!DOCTYPE svg PUBLIC "-//W3C//DTD SVG 1.1//EN"
 "http://www.w3.org/Graphics/SVG/1.1/DTD/svg11.dtd">
<!-- Generated by graphviz version 2.30.1 (20200304.1809)
 -->
<!-- Title: states Pages: 1 -->
<svg width="872pt" height="253pt"
 viewBox="0.00 0.00 872.00 253.00" xmlns="http://www.w3.org/2000/svg" xmlns:xlink="http://www.w3.org/1999/xlink">
<g id="graph0" class="graph" transform="scale(1 1) rotate(0) translate(4 249)">
<title>states</title>
<polygon fill="white" stroke="white" points="-4,5 -4,-249 869,-249 869,5 -4,5"/>
<g id="clust1" class="cluster"><title>cluster_main</title>
<polygon fill="none" stroke="black" points="84,-8 84,-237 764,-237 764,-8 84,-8"/>
<text text-anchor="middle" x="424" y="-221.8" font-family="Times,serif" font-size="14.00">active</text>
</g>
<!-- INACTIVE -->
<g id="node1" class="node"><title>INACTIVE</title>
<ellipse fill="none" stroke="black" cx="829" cy="-139" rx="31.1517" ry="31.1517"/>
<ellipse fill="none" stroke="black" cx="829" cy="-139" rx="35.1609" ry="35.1609"/>
<text text-anchor="middle" x="829" y="-137.1" font-family="Times,serif" font-size="8.00">INACTIVE</text>
</g>
<!-- DEPEND -->
<g id="node2" class="node"><title>DEPEND</title>
<ellipse fill="none" stroke="black" cx="121" cy="-122" rx="28.9464" ry="28.9464"/>
<text text-anchor="middle" x="121" y="-120.1" font-family="Times,serif" font-size="8.00">DEPEND</text>
</g>
<!-- PRIORITY -->
<g id="node3" class="node"><title>PRIORITY</title>
<ellipse fill="none" stroke="black" cx="270" cy="-122" rx="30.0536" ry="30.0536"/>
<text text-anchor="middle" x="270" y="-120.1" font-family="Times,serif" font-size="8.00">PRIORITY</text>
</g>
<!-- DEPEND&#45;&gt;PRIORITY -->
<g id="edge2" class="edge"><title>DEPEND&#45;&gt;PRIORITY</title>
<path fill="none" stroke="black" d="M149.996,-122C172.518,-122 204.44,-122 229.553,-122"/>
<polygon fill="black" stroke="black" points="229.851,-125.5 239.851,-122 229.851,-118.5 229.851,-125.5"/>
<text text-anchor="middle" x="195" y="-125.8" font-family="Times,serif" font-size="14.00">depend</text>
</g>
<!-- CLEANUP -->
<g id="node7" class="node"><title>CLEANUP</title>
<ellipse fill="none" stroke="black" cx="725" cy="-139" rx="31.1609" ry="31.1609"/>
<text text-anchor="middle" x="725" y="-137.1" font-family="Times,serif" font-size="8.00">CLEANUP</text>
</g>
<!-- DEPEND&#45;&gt;CLEANUP -->
<g id="edge10" class="edge"><title>DEPEND&#45;&gt;CLEANUP</title>
<path fill="none" stroke="red" d="M148.063,-133.405C154.52,-136.053 161.464,-138.751 168,-141 199.405,-151.804 207.258,-155.432 240,-161 405.878,-189.208 450.044,-192.099 618,-182 643.918,-180.442 651.905,-184.674 676,-175 681.963,-172.606 687.839,-169.275 693.325,-165.598"/>
<polygon fill="red" stroke="red" points="695.533,-168.321 701.579,-159.62 691.427,-162.651 695.533,-168.321"/>
<text text-anchor="middle" x="453" y="-190.8" font-family="Times,serif" font-size="14.00">exception</text>
</g>
<!-- SCHED -->
<g id="node4" class="node"><title>SCHED</title>
<ellipse fill="none" stroke="black" cx="453" cy="-128" rx="27" ry="27"/>
<text text-anchor="middle" x="453" y="-126.1" font-family="Times,serif" font-size="8.00">SCHED</text>
</g>
<!-- PRIORITY&#45;&gt;SCHED -->
<g id="edge3" class="edge"><title>PRIORITY&#45;&gt;SCHED</title>
<path fill="none" stroke="black" d="M298.536,-112.353C304.853,-110.546 311.597,-108.933 318,-108 354.063,-102.743 364.168,-101.347 400,-108 406.092,-109.131 412.392,-110.949 418.413,-113.038"/>
<polygon fill="black" stroke="black" points="417.607,-116.475 428.199,-116.738 420.083,-109.928 417.607,-116.475"/>
<text text-anchor="middle" x="359" y="-111.8" font-family="Times,serif" font-size="14.00">priority</text>
</g>
<!-- RUN -->
<g id="node5" class="node"><title>RUN</title>
<ellipse fill="none" stroke="black" cx="588" cy="-139" rx="27" ry="27"/>
<text text-anchor="middle" x="588" y="-137.1" font-family="Times,serif" font-size="8.00">RUN</text>
</g>
<!-- SCHED&#45;&gt;RUN -->
<g id="edge4" class="edge"><title>SCHED&#45;&gt;RUN</title>
<path fill="none" stroke="black" d="M479.959,-130.147C500.06,-131.809 528.151,-134.133 550.513,-135.982"/>
<polygon fill="black" stroke="black" points="550.397,-139.485 560.651,-136.821 550.974,-132.508 550.397,-139.485"/>
<text text-anchor="middle" x="523" y="-137.8" font-family="Times,serif" font-size="14.00">alloc</text>
</g>
<!-- SCHED&#45;&gt;PRIORITY -->
<g id="edge7" class="edge"><title>SCHED&#45;&gt;PRIORITY</title>
<path fill="none" stroke="black" d="M425.929,-127.136C395.672,-126.133 345.459,-124.468 310.427,-123.307"/>
<polygon fill="black" stroke="black" points="310.191,-119.797 300.081,-122.964 309.959,-126.793 310.191,-119.797"/>
<text text-anchor="middle" x="359" y="-129.8" font-family="Times,serif" font-size="14.00">flux&#45;restart</text>
</g>
<!-- SCHED&#45;&gt;CLEANUP -->
<g id="edge11" class="edge"><title>SCHED&#45;&gt;CLEANUP</title>
<path fill="none" stroke="red" d="M476.531,-141.776C496.945,-153.363 528.29,-168.974 558,-175 609.621,-185.47 626.235,-181.257 676,-164 680.26,-162.523 684.609,-160.721 688.864,-158.768"/>
<polygon fill="red" stroke="red" points="690.515,-161.858 697.96,-154.32 687.439,-155.569 690.515,-161.858"/>
</g>
<!-- RUN&#45;&gt;CLEANUP -->
<g id="edge5" class="edge"><title>RUN&#45;&gt;CLEANUP</title>
<path fill="none" stroke="black" d="M615.029,-139C634.476,-139 661.42,-139 683.65,-139"/>
<polygon fill="black" stroke="black" points="683.808,-142.5 693.808,-139 683.808,-135.5 683.808,-142.5"/>
<text text-anchor="middle" x="656" y="-142.8" font-family="Times,serif" font-size="14.00">finish</text>
</g>
<!-- OFFLINE -->
<g id="node6" class="node"><title>OFFLINE</title>
<ellipse fill="none" stroke="black" cx="588" cy="-46" rx="30.0536" ry="30.0536"/>
<text text-anchor="middle" x="588" y="-44.1" font-family="Times,serif" font-size="8.00">OFFLINE</text>
</g>
<!-- RUN&#45;&gt;OFFLINE -->
<g id="edge8" class="edge"><title>RUN&#45;&gt;OFFLINE</title>
<path fill="none" stroke="black" d="M604.205,-117.124C610.53,-104.793 612.104,-92.4627 608.927,-80.1323"/>
<polygon fill="black" stroke="black" points="612.222,-78.9511 605.572,-70.7031 605.627,-81.2978 612.222,-78.9511"/>
<text text-anchor="middle" x="649.975" y="-83.382" font-family="Times,serif" font-size="14.00">disconnect</text>
</g>
<!-- RUN&#45;&gt;CLEANUP -->
<g id="edge12" class="edge"><title>RUN&#45;&gt;CLEANUP</title>
<path fill="none" stroke="red" d="M612.849,-150.699C620.107,-153.691 628.225,-156.488 636,-158 653.451,-161.394 658.537,-161.331 676,-158 679.648,-157.304 683.373,-156.336 687.054,-155.202"/>
<polygon fill="red" stroke="red" points="688.313,-158.469 696.612,-151.884 686.018,-151.856 688.313,-158.469"/>
</g>
<!-- OFFLINE&#45;&gt;RUN -->
<g id="edge9" class="edge"><title>OFFLINE&#45;&gt;RUN</title>
<path fill="none" stroke="black" d="M570.428,-70.7031C564.83,-83.0336 563.982,-95.364 567.884,-107.694"/>
<polygon fill="black" stroke="black" points="564.731,-109.227 571.795,-117.124 571.197,-106.546 564.731,-109.227"/>
<text text-anchor="middle" x="529.018" y="-83.2007" font-family="Times,serif" font-size="14.00">reconnect</text>
</g>
<!-- CLEANUP&#45;&gt;INACTIVE -->
<g id="edge6" class="edge"><title>CLEANUP&#45;&gt;INACTIVE</title>
<path fill="none" stroke="black" d="M756.327,-139C764.861,-139 774.323,-139 783.501,-139"/>
<polygon fill="black" stroke="black" points="783.676,-142.5 793.676,-139 783.676,-135.5 783.676,-142.5"/>
</g>
<!-- NEW -->
<g id="node8" class="node"><title>NEW</title>
<ellipse fill="none" stroke="black" cx="27" cy="-122" rx="27" ry="27"/>
<text text-anchor="middle" x="27" y="-120.1" font-family="Times,serif" font-size="8.00">NEW</text>
</g>
<!-- NEW&#45;&gt;DEPEND -->
<g id="edge1" class="edge"><title>NEW&#45;&gt;DEPEND</title>
<path fill="none" stroke="black" d="M54.1174,-122C62.6861,-122 72.3945,-122 81.6741,-122"/>
<polygon fill="black" stroke="black" points="81.8854,-125.5 91.8853,-122 81.8853,-118.5 81.8854,-125.5"/>
</g>
</g>
</svg>
