<?xml version="1.0" encoding="UTF-8" standalone="no"?>
<!DOCTYPE svg PUBLIC "-//W3C//DTD SVG 1.1//EN"
 "http://www.w3.org/Graphics/SVG/1.1/DTD/svg11.dtd">
<!-- Generated by graphviz version 2.43.0 (0)
 -->
<!-- Title: states Pages: 1 -->
<svg width="974pt" height="228pt"
 viewBox="0.00 0.00 974.16 228.25" xmlns="http://www.w3.org/2000/svg" xmlns:xlink="http://www.w3.org/1999/xlink">
<g id="graph0" class="graph" transform="scale(1 1) rotate(0) translate(4 224.25)">
<title>states</title>
<polygon fill="white" stroke="transparent" points="-4,4 -4,-224.25 970.16,-224.25 970.16,4 -4,4"/>
<g id="clust1" class="cluster">
<title>cluster_main</title>
<polygon fill="none" stroke="black" points="140,-12.25 140,-212.25 830,-212.25 830,-12.25 140,-12.25"/>
<text text-anchor="middle" x="485" y="-197.05" font-family="Times,serif" font-size="14.00">active</text>
</g>
<!-- INACTIVE -->
<g id="node1" class="node">
<title>INACTIVE</title>
<ellipse fill="none" stroke="black" cx="931.08" cy="-87.25" rx="31.15" ry="31.15"/>
<ellipse fill="none" stroke="black" cx="931.08" cy="-87.25" rx="35.16" ry="35.16"/>
<text text-anchor="middle" x="931.08" y="-85.35" font-family="Times,serif" font-size="8.00">INACTIVE</text>
</g>
<!-- DEPEND -->
<g id="node2" class="node">
<title>DEPEND</title>
<ellipse fill="none" stroke="black" cx="175" cy="-96.25" rx="27" ry="27"/>
<text text-anchor="middle" x="175" y="-94.35" font-family="Times,serif" font-size="8.00">DEPEND</text>
</g>
<!-- PRIORITY -->
<g id="node3" class="node">
<title>PRIORITY</title>
<ellipse fill="none" stroke="black" cx="319.5" cy="-96.25" rx="27" ry="27"/>
<text text-anchor="middle" x="319.5" y="-94.35" font-family="Times,serif" font-size="8.00">PRIORITY</text>
</g>
<!-- DEPEND&#45;&gt;PRIORITY -->
<g id="edge2" class="edge">
<title>DEPEND&#45;&gt;PRIORITY</title>
<path fill="none" stroke="black" d="M202.14,-96.25C224.49,-96.25 256.92,-96.25 281.86,-96.25"/>
<polygon fill="black" stroke="black" points="282.05,-99.75 292.05,-96.25 282.05,-92.75 282.05,-99.75"/>
<text text-anchor="middle" x="246.5" y="-100.05" font-family="Times,serif" font-size="14.00">depend</text>
</g>
<!-- CLEANUP -->
<g id="node6" class="node">
<title>CLEANUP</title>
<ellipse fill="none" stroke="black" cx="792.5" cy="-87.25" rx="27" ry="27"/>
<text text-anchor="middle" x="792.5" y="-85.35" font-family="Times,serif" font-size="8.00">CLEANUP</text>
</g>
<!-- DEPEND&#45;&gt;CLEANUP -->
<g id="edge10" class="edge">
<title>DEPEND&#45;&gt;CLEANUP</title>
<path fill="none" stroke="red" d="M199.16,-108.48C234.13,-126.16 303.04,-157.98 366,-169.25 507.52,-194.59 545.96,-157.15 687,-129.25 712.82,-124.15 720.64,-127.22 745,-117.25 750.58,-114.97 756.22,-112 761.56,-108.82"/>
<polygon fill="red" stroke="red" points="763.61,-111.66 770.18,-103.35 759.86,-105.75 763.61,-111.66"/>
<text text-anchor="middle" x="528" y="-178.05" font-family="Times,serif" font-size="14.00">exception</text>
</g>
<!-- SCHED -->
<g id="node4" class="node">
<title>SCHED</title>
<ellipse fill="none" stroke="black" cx="528" cy="-87.25" rx="27" ry="27"/>
<text text-anchor="middle" x="528" y="-85.35" font-family="Times,serif" font-size="8.00">SCHED</text>
</g>
<!-- PRIORITY&#45;&gt;SCHED -->
<g id="edge3" class="edge">
<title>PRIORITY&#45;&gt;SCHED</title>
<path fill="none" stroke="black" d="M337.36,-116.96C345.14,-124.9 355.08,-133.06 366,-137.25 411.22,-154.62 430.06,-155.35 475,-137.25 486.14,-132.77 496.23,-124.62 504.5,-116.19"/>
<polygon fill="black" stroke="black" points="507.1,-118.54 511.27,-108.8 501.94,-113.81 507.1,-118.54"/>
<text text-anchor="middle" x="420.5" y="-154.05" font-family="Times,serif" font-size="14.00">priority</text>
</g>
<!-- PRIORITY&#45;&gt;CLEANUP -->
<g id="edge11" class="edge">
<title>PRIORITY&#45;&gt;CLEANUP</title>
<path fill="none" stroke="red" d="M330.31,-71.12C337.66,-56.02 349.35,-38.07 366,-29.25 498.09,40.72 684.28,-34.49 758.8,-70.39"/>
<polygon fill="red" stroke="red" points="757.63,-73.71 768.15,-74.97 760.71,-67.43 757.63,-73.71"/>
</g>
<!-- SCHED&#45;&gt;PRIORITY -->
<g id="edge7" class="edge">
<title>SCHED&#45;&gt;PRIORITY</title>
<path fill="none" stroke="black" d="M508.66,-67.8C499.46,-59.45 487.6,-50.62 475,-46.25 429.23,-30.38 410.31,-26.67 366,-46.25 356.34,-50.52 347.85,-57.97 340.9,-65.83"/>
<polygon fill="black" stroke="black" points="338.07,-63.77 334.47,-73.73 343.5,-68.18 338.07,-63.77"/>
<text text-anchor="middle" x="420.5" y="-50.05" font-family="Times,serif" font-size="14.00">flux&#45;restart</text>
</g>
<!-- SCHED&#45;&gt;PRIORITY -->
<g id="edge8" class="edge">
<title>SCHED&#45;&gt;PRIORITY</title>
<path fill="none" stroke="black" d="M500.94,-84.42C468.99,-81.49 413.27,-78.12 366,-84.25 362.57,-84.7 359.04,-85.32 355.52,-86.06"/>
<polygon fill="black" stroke="black" points="354.71,-82.65 345.78,-88.35 356.31,-89.46 354.71,-82.65"/>
<text text-anchor="middle" x="420.5" y="-88.05" font-family="Times,serif" font-size="14.00">urgency</text>
</g>
<!-- SCHED&#45;&gt;PRIORITY -->
<g id="edge9" class="edge">
<title>SCHED&#45;&gt;PRIORITY</title>
<path fill="none" stroke="black" d="M501.81,-94.28C493.36,-96.31 483.84,-98.25 475,-99.25 434.65,-103.85 387.99,-101.96 356.6,-99.65"/>
<polygon fill="black" stroke="black" points="356.81,-96.15 346.57,-98.86 356.26,-103.13 356.81,-96.15"/>
<text text-anchor="middle" x="420.5" y="-105.05" font-family="Times,serif" font-size="14.00">jobspec&#45;update</text>
</g>
<!-- RUN -->
<g id="node5" class="node">
<title>RUN</title>
<ellipse fill="none" stroke="black" cx="660" cy="-87.25" rx="27" ry="27"/>
<text text-anchor="middle" x="660" y="-85.35" font-family="Times,serif" font-size="8.00">RUN</text>
</g>
<!-- SCHED&#45;&gt;RUN -->
<g id="edge4" class="edge">
<title>SCHED&#45;&gt;RUN</title>
<path fill="none" stroke="black" d="M555.31,-87.25C574.69,-87.25 601.29,-87.25 622.7,-87.25"/>
<polygon fill="black" stroke="black" points="622.73,-90.75 632.73,-87.25 622.73,-83.75 622.73,-90.75"/>
<text text-anchor="middle" x="598" y="-91.05" font-family="Times,serif" font-size="14.00">alloc</text>
</g>
<!-- SCHED&#45;&gt;CLEANUP -->
<g id="edge12" class="edge">
<title>SCHED&#45;&gt;CLEANUP</title>
<path fill="none" stroke="red" d="M552.76,-98.16C573.44,-107 604.51,-118.71 633,-123.25 682.72,-131.17 697.48,-122.88 745,-106.25 749.28,-104.75 753.75,-103.08 758.14,-101.36"/>
<polygon fill="red" stroke="red" points="759.57,-104.56 767.55,-97.59 756.96,-98.06 759.57,-104.56"/>
</g>
<!-- RUN&#45;&gt;CLEANUP -->
<g id="edge5" class="edge">
<title>RUN&#45;&gt;CLEANUP</title>
<path fill="none" stroke="black" d="M687.09,-87.25C706.65,-87.25 733.66,-87.25 755.31,-87.25"/>
<polygon fill="black" stroke="black" points="755.45,-90.75 765.45,-87.25 755.45,-83.75 755.45,-90.75"/>
<text text-anchor="middle" x="725" y="-91.05" font-family="Times,serif" font-size="14.00">finish</text>
</g>
<!-- RUN&#45;&gt;CLEANUP -->
<g id="edge13" class="edge">
<title>RUN&#45;&gt;CLEANUP</title>
<path fill="none" stroke="red" d="M687.03,-84.49C692.93,-83.98 699.18,-83.52 705,-83.25 722.76,-82.45 727.24,-82.49 745,-83.25 748.32,-83.4 751.77,-83.59 755.22,-83.83"/>
<polygon fill="red" stroke="red" points="755.22,-87.34 765.46,-84.62 755.75,-80.36 755.22,-87.34"/>
</g>
<!-- CLEANUP&#45;&gt;INACTIVE -->
<g id="edge6" class="edge">
<title>CLEANUP&#45;&gt;INACTIVE</title>
<path fill="none" stroke="black" d="M819.51,-87.25C838.22,-87.25 863.91,-87.25 885.81,-87.25"/>
<polygon fill="black" stroke="black" points="885.9,-90.75 895.9,-87.25 885.9,-83.75 885.9,-90.75"/>
<text text-anchor="middle" x="859" y="-91.05" font-family="Times,serif" font-size="14.00">clean</text>
</g>
<!-- NEW -->
<g id="node7" class="node">
<title>NEW</title>
<ellipse fill="none" stroke="black" cx="27" cy="-96.25" rx="27" ry="27"/>
<text text-anchor="middle" x="27" y="-94.35" font-family="Times,serif" font-size="8.00">NEW</text>
</g>
<!-- NEW&#45;&gt;DEPEND -->
<g id="edge1" class="edge">
<title>NEW&#45;&gt;DEPEND</title>
<path fill="none" stroke="black" d="M54.1,-96.25C77.31,-96.25 111.5,-96.25 137.43,-96.25"/>
<polygon fill="black" stroke="black" points="137.63,-99.75 147.63,-96.25 137.63,-92.75 137.63,-99.75"/>
<text text-anchor="middle" x="101" y="-100.05" font-family="Times,serif" font-size="14.00">validate</text>
</g>
</g>
</svg>
