<?xml version="1.0" encoding="UTF-8" standalone="no"?>
<!DOCTYPE svg PUBLIC "-//W3C//DTD SVG 1.1//EN"
 "http://www.w3.org/Graphics/SVG/1.1/DTD/svg11.dtd">
<!-- Generated by graphviz version 2.40.1 (20161225.0304)
 -->
<!-- Title: states Pages: 1 -->
<svg width="576pt" height="122pt"
 viewBox="0.00 0.00 576.00 122.48" xmlns="http://www.w3.org/2000/svg" xmlns:xlink="http://www.w3.org/1999/xlink">
<g id="graph0" class="graph" transform="scale(.7334 .7334) rotate(0) translate(4 163)">
<title>states</title>
<polygon fill="#ffffff" stroke="transparent" points="-4,4 -4,-163 781.372,-163 781.372,4 -4,4"/>
<g id="clust1" class="cluster">
<title>cluster_main</title>
<polygon fill="none" stroke="#000000" points="83,-8 83,-151 672,-151 672,-8 83,-8"/>
<text text-anchor="middle" x="377.5" y="-135.8" font-family="Times,serif" font-size="14.00" fill="#000000">active</text>
</g>
<!-- INACTIVE -->
<g id="node1" class="node">
<title>INACTIVE</title>
<ellipse fill="none" stroke="#000000" cx="739.186" cy="-43" rx="34.3533" ry="34.3533"/>
<ellipse fill="none" stroke="#000000" cx="739.186" cy="-43" rx="38.3729" ry="38.3729"/>
<text text-anchor="middle" x="739.186" y="-40.5" font-family="Times,serif" font-size="10.00" fill="#000000">INACTIVE</text>
</g>
<!-- DEPEND -->
<g id="node2" class="node">
<title>DEPEND</title>
<ellipse fill="none" stroke="#000000" cx="119" cy="-43" rx="27" ry="27"/>
<text text-anchor="middle" x="119" y="-40.5" font-family="Times,serif" font-size="10.00" fill="#000000">DEPEND</text>
</g>
<!-- SCHED -->
<g id="node3" class="node">
<title>SCHED</title>
<ellipse fill="none" stroke="#000000" cx="288" cy="-43" rx="27" ry="27"/>
<text text-anchor="middle" x="288" y="-40.5" font-family="Times,serif" font-size="10.00" fill="#000000">SCHED</text>
</g>
<!-- DEPEND&#45;&gt;SCHED -->
<g id="edge2" class="edge">
<title>DEPEND&#45;&gt;SCHED</title>
<path fill="none" stroke="#000000" d="M146.1528,-43C174.487,-43 219.1095,-43 250.7314,-43"/>
<polygon fill="#000000" stroke="#000000" points="250.9146,-46.5001 260.9146,-43 250.9146,-39.5001 250.9146,-46.5001"/>
<text text-anchor="middle" x="204" y="-46.8" font-family="Times,serif" font-size="14.00" fill="#000000">depend</text>
</g>
<!-- CLEANUP -->
<g id="node5" class="node">
<title>CLEANUP</title>
<ellipse fill="none" stroke="#000000" cx="632.5" cy="-43" rx="27" ry="27"/>
<text text-anchor="middle" x="632.5" y="-40.5" font-family="Times,serif" font-size="10.00" fill="#000000">CLEANUP</text>
</g>
<!-- DEPEND&#45;&gt;CLEANUP -->
<g id="edge6" class="edge">
<title>DEPEND&#45;&gt;CLEANUP</title>
<path fill="none" stroke="#ff0000" d="M144.8266,-50.9816C156.7068,-54.5415 171.0165,-58.6732 184,-62 318.6605,-96.5049 357.1718,-91.1267 496,-84 526.342,-82.4424 534.5667,-84.5328 564,-77 572.8764,-74.7283 574.7145,-72.9116 583,-69 588.3985,-66.4513 594.0599,-63.6267 599.5465,-60.8058"/>
<polygon fill="#ff0000" stroke="#ff0000" points="601.293,-63.8423 608.5374,-56.1113 598.053,-57.6372 601.293,-63.8423"/>
<text text-anchor="middle" x="378.5" y="-92.8" font-family="Times,serif" font-size="14.00" fill="#000000">exception</text>
</g>
<!-- RUN -->
<g id="node4" class="node">
<title>RUN</title>
<ellipse fill="none" stroke="#000000" cx="469" cy="-43" rx="27" ry="27"/>
<text text-anchor="middle" x="469" y="-40.5" font-family="Times,serif" font-size="10.00" fill="#000000">RUN</text>
</g>
<!-- SCHED&#45;&gt;RUN -->
<g id="edge3" class="edge">
<title>SCHED&#45;&gt;RUN</title>
<path fill="none" stroke="#000000" d="M315.1016,-40.1994C320.9954,-39.6999 327.2017,-39.2572 333,-39 366.3323,-37.5215 404.2853,-38.8923 431.6124,-40.4182"/>
<polygon fill="#000000" stroke="#000000" points="431.7079,-43.93 441.8975,-41.0278 432.1221,-36.9422 431.7079,-43.93"/>
<text text-anchor="middle" x="378.5" y="-43.8" font-family="Times,serif" font-size="14.00" fill="#000000">alloc</text>
</g>
<!-- SCHED&#45;&gt;CLEANUP -->
<g id="edge7" class="edge">
<title>SCHED&#45;&gt;CLEANUP</title>
<path fill="none" stroke="#ff0000" d="M314.4293,-49.7732C325.9517,-52.6832 339.6272,-56.0792 352,-59 414.8858,-73.8453 431.621,-84.5093 496,-79 535.0943,-75.6545 545.3564,-75.0688 583,-64 588.0755,-62.5076 593.3297,-60.6468 598.4347,-58.6539"/>
<polygon fill="#ff0000" stroke="#ff0000" points="600.0689,-61.7661 607.9817,-54.7206 597.4024,-55.2938 600.0689,-61.7661"/>
</g>
<!-- RUN&#45;&gt;CLEANUP -->
<g id="edge4" class="edge">
<title>RUN&#45;&gt;CLEANUP</title>
<path fill="none" stroke="#000000" d="M496.3662,-43C523.4455,-43 565.0949,-43 595.1948,-43"/>
<polygon fill="#000000" stroke="#000000" points="595.3171,-46.5001 605.317,-43 595.317,-39.5001 595.3171,-46.5001"/>
<text text-anchor="middle" x="548.5" y="-46.8" font-family="Times,serif" font-size="14.00" fill="#000000">finish</text>
</g>
<!-- RUN&#45;&gt;CLEANUP -->
<g id="edge8" class="edge">
<title>RUN&#45;&gt;CLEANUP</title>
<path fill="none" stroke="#ff0000" d="M494.4667,-52.3994C506.0503,-56.1941 520.0389,-60.1167 533,-62 554.3909,-65.1082 578.1775,-60.852 597.1286,-55.5865"/>
<polygon fill="#ff0000" stroke="#ff0000" points="598.2561,-58.9026 606.8358,-52.6867 596.2524,-52.1955 598.2561,-58.9026"/>
</g>
<!-- CLEANUP&#45;&gt;INACTIVE -->
<g id="edge5" class="edge">
<title>CLEANUP&#45;&gt;INACTIVE</title>
<path fill="none" stroke="#000000" d="M659.6974,-43C669.1477,-43 680.0526,-43 690.6974,-43"/>
<polygon fill="#000000" stroke="#000000" points="690.7677,-46.5001 700.7677,-43 690.7676,-39.5001 690.7677,-46.5001"/>
</g>
<!-- NEW -->
<g id="node6" class="node">
<title>NEW</title>
<ellipse fill="none" stroke="#000000" cx="27" cy="-43" rx="27" ry="27"/>
<text text-anchor="middle" x="27" y="-40.5" font-family="Times,serif" font-size="10.00" fill="#000000">NEW</text>
</g>
<!-- NEW&#45;&gt;DEPEND -->
<g id="edge1" class="edge">
<title>NEW&#45;&gt;DEPEND</title>
<path fill="none" stroke="#000000" d="M54.1054,-43C62.7317,-43 72.431,-43 81.6495,-43"/>
<polygon fill="#000000" stroke="#000000" points="81.7704,-46.5001 91.7704,-43 81.7703,-39.5001 81.7704,-46.5001"/>
</g>
</g>
</svg>
